<?xml version="1.0" encoding="utf-8"?>
<!-- Generator: Adobe Illustrator 16.0.0, SVG Export Plug-In . SVG Version: 6.00 Build 0)  -->
<!DOCTYPE svg PUBLIC "-//W3C//DTD SVG 1.1//EN" "http://www.w3.org/Graphics/SVG/1.1/DTD/svg11.dtd">
<svg version="1.1" id="Capa_1" xmlns="http://www.w3.org/2000/svg" xmlns:xlink="http://www.w3.org/1999/xlink" x="0px" y="0px"
	 width="180px" height="120px" viewBox="0 0 180 120" enable-background="new 0 0 180 120" xml:space="preserve">
<g>
	<path d="M138.297,67.779c0-15.89-7.715-30.01-19.594-38.817l0.938-1.672l14.524,8.139c0.364,0.204,0.759,0.301,1.149,0.301
		c0.824,0,1.625-0.434,2.057-1.204c2.789-4.978,3.473-10.744,1.926-16.236c-1.333-4.729-4.186-8.764-8.129-11.575l1.797-3.209
		c0.635-1.135,0.23-2.57-0.905-3.205c-1.135-0.635-2.569-0.23-3.205,0.904l-1.796,3.208c-9.887-4.191-21.59-0.353-26.959,9.229
		c-0.306,0.545-0.382,1.189-0.213,1.79c0.17,0.601,0.57,1.11,1.115,1.416l14.529,8.141l-0.756,1.349
		c-7.248-4.35-15.725-6.854-24.776-6.854s-17.527,2.505-24.775,6.854l-0.756-1.349l14.529-8.141
		c1.135-0.636,1.539-2.071,0.903-3.206c-2.789-4.978-7.35-8.571-12.842-10.119c-4.729-1.333-9.66-1.006-14.118,0.89l-1.795-3.207
		C50.51,0.07,49.075-0.335,47.94,0.3c-1.135,0.635-1.54,2.071-0.905,3.206l1.796,3.209c-3.943,2.812-6.796,6.847-8.128,11.576
		c-1.547,5.492-0.864,11.258,1.926,16.236c0.432,0.771,1.232,1.204,2.057,1.204c0.39,0,0.785-0.097,1.149-0.301l14.524-8.139
		l0.937,1.671C49.418,37.77,41.704,51.89,41.704,67.779c0,14.195,6.158,26.98,15.941,35.824l-2.96,13.539
		c-0.278,1.27,0.527,2.525,1.798,2.803c0.169,0.037,0.338,0.055,0.505,0.055c1.083,0,2.058-0.751,2.299-1.852l2.455-11.229
		c7.951,5.757,17.715,9.156,28.259,9.156c10.544,0,20.309-3.399,28.26-9.156l2.454,11.229c0.241,1.102,1.216,1.852,2.298,1.852
		c0.167,0,0.336-0.018,0.506-0.055c1.27-0.277,2.075-1.533,1.797-2.803l-2.959-13.539C132.139,94.759,138.297,81.975,138.297,67.779
		z M126.875,9.557c3.88,2.174,6.682,5.729,7.889,10.01c0.99,3.516,0.808,7.176-0.494,10.521l-28.765-16.118
		C110.451,7.491,119.562,5.459,126.875,9.557z M45.73,30.089c-1.302-3.345-1.484-7.005-0.493-10.521
		c1.207-4.281,4.008-7.836,7.888-10.011c2.568-1.439,5.358-2.122,8.111-2.122c5.087,0,10.05,2.332,13.259,6.536L45.73,30.089z
		 M46.414,67.779c0-24.034,19.552-43.587,43.586-43.587c24.033,0,43.586,19.553,43.586,43.587c0,24.033-19.553,43.586-43.586,43.586
		C65.966,111.365,46.414,91.812,46.414,67.779z"/>
	<path d="M98.45,71.191h11.387c1.301,0,2.355-1.054,2.355-2.354c0-1.3-1.055-2.354-2.355-2.354H98.451
		c-0.804-2.759-2.98-4.936-5.738-5.74v-5.319c0-1.301-1.055-2.354-2.355-2.354s-2.354,1.054-2.354,2.354v5.319
		c-3.506,1.022-6.075,4.263-6.075,8.094c0,4.648,3.781,8.431,8.43,8.431C94.188,77.267,97.429,74.697,98.45,71.191z M86.637,68.836
		c0-2.052,1.67-3.721,3.721-3.721c2.053,0,3.721,1.669,3.721,3.721s-1.668,3.721-3.721,3.721
		C88.307,72.557,86.637,70.888,86.637,68.836z"/>
	<path d="M90,37.491c0.843,0,1.525-0.682,1.525-1.525V34.44c0-0.844-0.683-1.525-1.525-1.525c-0.842,0-1.525,0.682-1.525,1.525
		v1.525C88.475,36.808,89.158,37.491,90,37.491z"/>
	<path d="M90,98.509c-0.842,0-1.525,0.682-1.525,1.525v1.525c0,0.843,0.683,1.525,1.525,1.525c0.843,0,1.525-0.683,1.525-1.525
		v-1.525C91.525,99.19,90.845,98.509,90,98.509z"/>
	<path d="M122.034,69.525h1.525c0.842,0,1.525-0.681,1.525-1.525s-0.684-1.525-1.525-1.525h-1.525c-0.843,0-1.525,0.681-1.525,1.525
		S121.191,69.525,122.034,69.525z"/>
	<path d="M57.966,66.475H56.44c-0.842,0-1.525,0.681-1.525,1.525s0.684,1.525,1.525,1.525h1.525c0.842,0,1.525-0.681,1.525-1.525
		S58.81,66.475,57.966,66.475z"/>
	<path d="M112.652,43.19l-1.078,1.078c-0.596,0.597-0.596,1.561,0,2.157c0.297,0.297,0.688,0.447,1.078,0.447
		c0.39,0,0.781-0.15,1.079-0.447l1.078-1.079c0.597-0.596,0.597-1.561,0-2.157C114.214,42.594,113.248,42.594,112.652,43.19z"/>
	<path d="M66.271,89.573l-1.079,1.078c-0.596,0.597-0.596,1.561,0,2.157c0.297,0.297,0.688,0.446,1.079,0.446
		s0.781-0.149,1.079-0.446l1.078-1.078c0.597-0.597,0.597-1.562,0-2.157C67.831,88.977,66.867,88.979,66.271,89.573z"/>
	<path d="M113.731,89.573c-0.596-0.597-1.561-0.597-2.157,0c-0.596,0.596-0.596,1.561,0,2.157l1.078,1.078
		c0.298,0.297,0.688,0.446,1.079,0.446c0.39,0,0.781-0.149,1.078-0.446c0.597-0.597,0.597-1.561,0-2.157L113.731,89.573z"/>
	<path d="M67.349,43.19c-0.597-0.597-1.561-0.597-2.157,0c-0.596,0.596-0.596,1.561,0,2.157l1.079,1.079
		c0.297,0.297,0.688,0.447,1.079,0.447c0.39,0,0.781-0.15,1.078-0.447c0.597-0.596,0.597-1.561,0-2.157L67.349,43.19z"/>
</g>
</svg>
