<?xml version="1.0" encoding="utf-8"?>
<!-- Generator: Adobe Illustrator 16.0.0, SVG Export Plug-In . SVG Version: 6.00 Build 0)  -->
<!DOCTYPE svg PUBLIC "-//W3C//DTD SVG 1.1//EN" "http://www.w3.org/Graphics/SVG/1.1/DTD/svg11.dtd">
<svg version="1.1" id="Capa_1" xmlns="http://www.w3.org/2000/svg" xmlns:xlink="http://www.w3.org/1999/xlink" x="0px" y="0px"
	 width="180px" height="120px" viewBox="0 0 180 120" enable-background="new 0 0 180 120" xml:space="preserve">
<g>
	<path fill="#A8A8A8" d="M137.031,23.335c0-0.167-0.026-0.328-0.072-0.479v-8.251c0-2.828-2.3-5.129-5.128-5.129h-20.952
		c-2.827,0-5.129,2.3-5.129,5.129v48.958c0,4.336-1.823,8.528-5,11.5c-3.221,3.012-7.423,4.509-11.831,4.214
		c-8.226-0.551-14.668-7.725-14.668-16.329V14.606c-0.001-2.829-2.302-5.129-5.13-5.129H48.17c-2.828,0-5.129,2.3-5.129,5.129v8.251
		c-0.047,0.151-0.072,0.312-0.072,0.479c0,0.167,0.025,0.328,0.072,0.479V62.6c0,12.408,4.679,24.209,13.176,33.229
		c8.571,9.098,20.064,14.308,32.363,14.673c0.479,0.016,0.958,0.021,1.436,0.021c12.267,0,23.824-4.684,32.673-13.274
		c9.203-8.934,14.271-20.896,14.271-33.684v-39.75C137.005,23.664,137.031,23.502,137.031,23.335z M110.879,12.751h20.952
		c1.023,0,1.855,0.832,1.855,1.854v7.093h-24.662v-7.093C109.024,13.583,109.856,12.751,110.879,12.751z M48.17,12.751h20.951
		c1.023,0,1.855,0.832,1.855,1.854v7.093H46.314v-7.093C46.314,13.583,47.147,12.751,48.17,12.751z M58.6,93.584
		c-7.923-8.41-12.286-19.413-12.286-30.984V24.973h24.662v37.977c0,10.204,7.611,18.729,17.388,19.564v24.702
		C77.057,106.797,66.498,101.967,58.6,93.584z M120.409,94.897c-7.842,7.614-17.968,11.925-28.772,12.319V82.52
		c4.23-0.354,8.182-2.102,11.349-5.063c3.838-3.59,6.04-8.653,6.04-13.892V24.973h24.661v38.592
		C133.687,75.458,128.971,86.587,120.409,94.897z"/>
	<path fill="#A8A8A8" d="M65.596,29.053c0,0-0.001,0-0.002,0c-0.903,0-1.636,0.732-1.638,1.634l-0.035,22.697
		c0,0.903,0.73,1.638,1.635,1.639c0.001,0,0.001,0,0.002,0c0.902,0,1.635-0.73,1.637-1.633l0.036-22.698
		C67.231,29.79,66.499,29.055,65.596,29.053z"/>
	<path fill="#A8A8A8" d="M65.58,57.874c-0.894-0.004-1.637,0.729-1.64,1.633l-0.004,3.491c-0.002,0.903,0.73,1.638,1.633,1.639
		c0,0,0.001,0,0.002,0c0.903,0,1.636-0.73,1.637-1.634l0.006-3.491C67.215,58.609,66.484,57.875,65.58,57.874z"/>
	<path fill="#A8A8A8" d="M128.372,63.602c-0.904-0.035-1.666,0.661-1.705,1.564c-0.415,9.621-4.534,18.562-11.597,25.179
		c-0.659,0.617-0.693,1.652-0.075,2.312c0.322,0.344,0.757,0.518,1.194,0.518c0.401,0,0.804-0.147,1.119-0.441
		c7.692-7.207,12.178-16.946,12.63-27.425C129.978,64.404,129.277,63.641,128.372,63.602z"/>
</g>
</svg>
