<?xml version="1.0" encoding="utf-8"?>
<!-- Generator: Adobe Illustrator 16.0.0, SVG Export Plug-In . SVG Version: 6.00 Build 0)  -->
<!DOCTYPE svg PUBLIC "-//W3C//DTD SVG 1.1//EN" "http://www.w3.org/Graphics/SVG/1.1/DTD/svg11.dtd">
<svg version="1.1" id="Capa_1" xmlns="http://www.w3.org/2000/svg" xmlns:xlink="http://www.w3.org/1999/xlink" x="0px" y="0px"
	 width="180px" height="120px" viewBox="0 0 180 120" enable-background="new 0 0 180 120" xml:space="preserve">
<g>
	<path d="M101.347,112.552c1.91,3.105,5.988,4.073,9.093,2.169l41.059-25.248l8.563-15.668l1.384-0.851
		c1.036-0.637,1.359-1.985,0.735-3.024l0.021-0.04l-0.043,0.001c-0.32-0.512-0.814-0.85-1.358-0.979
		c-0.552-0.132-1.153-0.052-1.674,0.269l-1.387,0.853l-17.844,0.573L98.841,95.854c-3.105,1.91-4.078,5.99-2.169,9.095
		L101.347,112.552z M146.791,87.166l-27.325,16.802l-6.96-11.317l27.324-16.805L146.791,87.166z M149.725,83.483l-5.283-8.59
		l10.16-0.328L149.725,83.483z M101.162,99.629l7.573-4.657l6.961,11.316l-7.574,4.658c-1.027,0.631-2.373,0.308-3.004-0.713
		l-4.675-7.604C99.813,101.604,100.136,100.258,101.162,99.629z"/>
	<path d="M73.263,34.282c0-6.8-5.532-12.333-12.332-12.333c-6.801,0-12.332,5.532-12.332,12.333c0,6.798,5.531,12.33,12.332,12.33
		C67.731,46.612,73.263,41.08,73.263,34.282z M53.028,34.282c0-4.358,3.545-7.903,7.903-7.903s7.903,3.548,7.903,7.903
		c0,4.356-3.545,7.901-7.903,7.901S53.028,38.638,53.028,34.282z"/>
	<path d="M39.34,85.416c0.437,0.498,1.047,0.751,1.661,0.751c0.518,0,1.041-0.183,1.461-0.552l36.124-31.804L97.008,72.23
		c0.867,0.866,2.267,0.866,3.132,0s0.865-2.265,0-3.13l-6.256-6.255l20.354-22.288l18.295,16.263
		c0.916,0.815,2.314,0.73,3.127-0.184c0.812-0.912,0.73-2.313-0.185-3.124l-19.929-17.716c-0.909-0.808-2.294-0.737-3.107,0.162
		L90.752,59.712L80.248,49.209c-0.828-0.826-2.152-0.866-3.029-0.098L39.538,82.289C38.621,83.097,38.53,84.496,39.34,85.416z"/>
	<path d="M151.724,4.232H27.714c-1.223,0-2.214,0.99-2.214,2.214v97.435c0,1.226,0.992,2.215,2.214,2.215H85.29
		c1.222,0,2.214-0.989,2.214-2.215c0-1.224-0.992-2.214-2.214-2.214H29.929V8.661h119.58v53.146c0,1.226,0.992,2.216,2.215,2.216
		c1.222,0,2.214-0.99,2.214-2.216V6.446C153.938,5.224,152.945,4.232,151.724,4.232z"/>
</g>
</svg>
