<?xml version="1.0" encoding="utf-8"?>
<!-- Generator: Adobe Illustrator 16.0.0, SVG Export Plug-In . SVG Version: 6.00 Build 0)  -->
<!DOCTYPE svg PUBLIC "-//W3C//DTD SVG 1.1//EN" "http://www.w3.org/Graphics/SVG/1.1/DTD/svg11.dtd">
<svg version="1.1" id="Capa_1" xmlns="http://www.w3.org/2000/svg" xmlns:xlink="http://www.w3.org/1999/xlink" x="0px" y="0px"
	 width="180px" height="120px" viewBox="0 0 180 120" enable-background="new 0 0 180 120" xml:space="preserve">
<g>
	<path fill="#A8A8A8" d="M135.474,98.398c-2.913-3.274-7.715-5.329-13.218-5.666c-0.335-1.418-0.396-3.813-0.299-5.74
		c1.092-1.189,4.149-4.819,5.575-9.539c0.508-1.683,0.626-6.339-4.289-18.617c-2.723-6.8-6.614-14.574-9.171-16.614
		c-3.08-2.456-8.906-2.972-13.251-2.972c-0.704,0-1.331,0.015-1.837,0.032l-0.25-1.572c2.678-2.358,4.207-5.73,4.207-9.296v-3.814
		c1.919-0.959,3.098-2.667,3.098-4.524v-3.406c0-4.739-3.833-9.061-9.583-10.861c0.022-0.208,0.033-0.415,0.033-0.619
		c0-3.276-2.665-5.941-5.94-5.941c-3.276,0-5.941,2.665-5.941,5.941c0,0.205,0.011,0.412,0.034,0.619
		c-5.751,1.8-9.583,6.122-9.583,10.861v3.406c0,1.857,1.178,3.565,3.097,4.524v3.813c0,3.685,1.615,7.129,4.441,9.496l-0.219,1.378
		c-0.592-0.021-1.344-0.038-2.198-0.038c-4.74,0-11.091,0.506-14.434,2.919c-2.813,2.033-7.106,9.806-10.112,16.607
		c-1.757,3.978-4.192,14.365-2.739,18.726c0.307,0.922,0.707,1.864,1.188,2.807l-0.004,0.006l0.202,0.382
		c1.339,2.509,2.942,4.829,3.99,6.098c-1.048,1.389-2.955,3.47-6.292,5.972c-6.462,4.847-11.013,8.793-10.723,15.465
		c0.301,6.917,5.622,11.216,14.596,11.794c2.299,0.156,5.905-0.225,10.414-1.06l48.108,1.542c0,0,1.938,0.127,2.934,0.181
		c0.779,0.041,1.578,0.062,2.373,0.062c2.149,0,4.196-0.152,6.086-0.452c7.473-1.189,11.886-4.664,12.764-10.048
		C139.287,105.593,138.23,101.494,135.474,98.398z M94.925,109.898c-1.661,2.461-2.935,4.803-3.671,6.247l-11.394-0.362
		c6.336-1.78,11.439-3.652,13.708-5.057C94.021,110.446,94.474,110.17,94.925,109.898z M79.623,75.188
		c-0.584-3.86-0.882-8.732-0.394-9.831c0.17-0.383,0.411-1.066,0.73-2.077c0.513,1.059,0.961,2.357,0.961,3.663
		c0,1,0.813,1.814,1.813,1.814c1,0,1.812-0.814,1.812-1.814c0-1.229-0.246-2.417-0.612-3.506c0.372,0.673,1.213,1.074,1.998,0.891
		c-0.087,2.733-1.158,7.232-6.328,11.515C79.649,75.63,79.656,75.408,79.623,75.188z M81.332,58.629
		c0.076-0.27,0.153-0.542,0.23-0.816c0.915,1.242,2.146,3.201,2.146,4.749c0,0.114,0.011,0.226,0.031,0.334
		C83.02,61.02,81.983,59.488,81.332,58.629z M76.807,94.643c0.619-0.297,1.182-0.678,1.721-1.165l2.268-3.214
		c1.89-4.197,1.661-9.958,1.508-11.976c0.383-0.402,0.791-1.016,0.795-1.035l1.483-1.537l0.065-0.084
		c0.184-0.297,4.504-7.288,4.79-9.771c0.437-3.78-0.584-6.433-0.627-6.542c-0.348-0.897-1.436-1.381-2.34-1.034
		c-0.094,0.036-0.185,0.08-0.271,0.13c-1.151-2.287-2.872-4.221-3.463-4.853c0.458-1.669,0.608-2.159,0.647-2.282
		c0.056-0.094,0.082-0.182,0.104-0.265c0.252-0.967-0.328-1.959-1.294-2.213c-0.951-0.253-1.965,0.345-2.214,1.293
		c-0.271,1.037-0.408,1.495-0.602,2.146c-0.193,0.649-0.443,1.487-0.934,3.254l-2.12,7.255c-0.17,0.521-0.311,0.914-0.408,1.133
		c-0.394,0.888-0.577,2.3-0.556,4.309c-1.2-0.063-2.406-0.073-3.605-0.032c-0.105-4.336,0.884-10.052,1.484-13.084
		c0.188-0.554,0.355-0.943,0.43-1.127c0.263-0.958-0.303-1.958-1.265-2.231c-0.946-0.257-1.969,0.326-2.233,1.275
		c-0.083,0.312-0.515,1.952-0.853,3.527c-0.885,3.532-1.331,8.051-1.185,11.915c-6.489,0.767-10.893,2.779-10.939,2.801
		c-0.438,0.205-0.771,0.568-0.936,1.023s-0.144,0.946,0.061,1.386c0.404,0.862,1.554,1.275,2.397,0.883
		c0.063-0.027,6.457-2.783,14.923-2.783c0.643,0,1.288,0.017,1.923,0.049c0.166,1.797,0.386,3.331,0.477,3.937
		c0.147,0.983,1.021,1.673,2.064,1.522c0.196-0.029,0.382-0.09,0.553-0.178c-0.056,0.216-0.072,0.442-0.045,0.668
		c0.358,2.946,0.508,11.774-3.368,13.629c-2.139,1.021-6.385,1.432-12.031,1.172c-1.648-0.077-3.181-0.2-4.382-0.313
		c1.828-1.842,2.808-3.257,3.278-4.038c1.545-0.763,6.026-3.051,7.714-4.741c0.344-0.341,0.534-0.797,0.534-1.282
		s-0.189-0.94-0.531-1.281c-0.682-0.683-1.879-0.688-2.564,0c-0.945,0.945-3.708,2.512-6.098,3.725
		c-0.565-0.595-0.96-0.993-1.251-1.285c-0.72-0.728-0.72-0.728-1.257-1.735c-0.195-0.367-0.456-0.856-0.811-1.496
		c-0.67-1.495-1.177-2.753-1.505-3.739c-0.632-1.896-0.825-8.327,2.615-16.112c3.217-7.278,7.051-13.784,8.919-15.133
		c1.341-0.969,3.846-1.659,7.233-1.995l2.108-0.16c0.944-0.049,1.939-0.074,2.958-0.074c0.641,0,1.219,0.01,1.698,0.023
		c-0.066,1.971,0.61,3.926,1.895,5.433c1.514,1.775,3.721,2.793,6.053,2.793h1.733c2.33,0,4.535-1.017,6.049-2.791
		c1.287-1.508,1.965-3.466,1.898-5.441c1.134-0.03,2.334-0.019,3.311,0.019c0.006,0.001,0.641,0.082,1.026,0.082
		c0.384,0,1.077,0.062,1.126,0.067c1.851,0.178,3.454,0.496,4.818,0.959c0.414,0.091,1.601,0.8,2.24,1.217
		c1.809,1.755,5.04,7.898,7.858,14.94c3.049,7.613,4.77,14.283,4.185,16.22c-1.336,4.422-4.43,7.782-5.088,8.464l-0.102,0.105
		l-0.573,2.935c-0.02,0.956,0.549,4.079,1.087,6.952c0.109,0.581,0.197,1.045,0.201,1.067l-0.041,0.247l0.289,0.302
		c1.187,1.229,2.155,2.359,2.754,3.207c-0.359-0.021-0.779-0.03-1.271-0.03l-0.308,0.002l-0.604-0.022
		c-0.366-0.011-0.741-0.019-1.137-0.019c-3.613,0-8.012,0.475-11.439,0.887l-2.147,0.247v0.048
		c-2.883,0.575-7.54,3.036-10.993,5.034l-0.271,0.158c-1.173,0.683-2.146,1.276-2.76,1.655c-0.639,0.396-3.637,1.517-5.87,2.351
		c-1.226,0.458-2.383,0.89-2.884,1.105c-8.231,2.586-20.121,5.334-25.942,5.334c-0.312,0-0.604-0.009-0.875-0.025
		c-7.014-0.454-10.994-3.414-11.208-8.334c-0.219-5.031,3.205-7.853,9.209-12.364c0.231-0.104,1.818-0.562,2.444-0.562l0.09,0.006
		c1.762,0.322,3.759,0.688,5.747,0.979c1.429,0.076,2.72,0.113,3.948,0.113C71.052,96.245,74.581,95.706,76.807,94.643z
		 M94.84,45.986c-0.824,0.965-2.023,1.518-3.291,1.518h-1.733c-1.27,0-2.47-0.554-3.294-1.521c-0.823-0.965-1.181-2.237-0.981-3.489
		l0.409-2.573c2.985,1.201,6.453,1.17,9.449-0.104l0.425,2.677C96.022,43.748,95.663,45.021,94.84,45.986z M104.196,105.047
		c1.088-0.439,1.987-0.712,2.532-0.768c0.309-0.03,0.75-0.083,1.298-0.148l0.248-0.03c2.334-0.28,7.188-0.865,11.067-0.865
		c2.898,0,4.165,0.329,4.718,0.604c0.485,0.243,1.11,0.246,1.605,0.007c0.513-0.251,0.871-0.716,0.982-1.274
		c0.459-2.299,0.017-4.03-1.57-5.824c3.238,0.673,5.933,2.087,7.688,4.06c2.034,2.286,2.769,5.268,2.184,8.86
		c-1.055,6.479-10.029,7.447-15.285,7.447c-0.788,0-1.582-0.022-2.358-0.065c-0.927-0.052-2.497-0.152-2.578-0.158l-19.429-0.617
		C96.975,113.238,100.521,107.418,104.196,105.047z M79.177,20.961c-0.319-0.28-0.492-0.589-0.492-0.883v-3.406
		c0-4.235,3.817-7.554,9.078-7.891l0.752-0.048l-0.216-3.005c-0.042-0.175-0.063-0.356-0.063-0.537c0-1.276,1.038-2.314,2.314-2.314
		s2.314,1.038,2.314,2.314c0,0.177-0.021,0.359-0.069,0.562l-0.017,0.065l0.055,2.931l0.664,0.066
		c5.501,0.54,8.918,3.551,8.918,7.858v3.406c0,0.295-0.176,0.607-0.5,0.889l-2.599,0.047v7.402c0,4.834-3.933,8.767-8.767,8.767
		s-8.767-3.933-8.767-8.767v-7.461L79.177,20.961z"/>
	<path fill="#A8A8A8" d="M97.415,91.146c0.484,0,0.94-0.188,1.287-0.534l13.156-13.417c0.361-0.368,0.549-0.873,0.516-1.386
		l-0.774-12.13c-0.061-0.951-0.857-1.696-1.813-1.696l-0.112,0.004c-0.996,0.064-1.756,0.929-1.692,1.926l0.722,11.32l-12.59,12.832
		l-0.215,0.271v0.05c-0.44,0.706-0.354,1.636,0.234,2.23C96.475,90.957,96.93,91.146,97.415,91.146z"/>
</g>
</svg>
