<?xml version="1.0" encoding="utf-8"?>
<!-- Generator: Adobe Illustrator 16.0.0, SVG Export Plug-In . SVG Version: 6.00 Build 0)  -->
<!DOCTYPE svg PUBLIC "-//W3C//DTD SVG 1.1//EN" "http://www.w3.org/Graphics/SVG/1.1/DTD/svg11.dtd">
<svg version="1.1" id="Capa_1" xmlns="http://www.w3.org/2000/svg" xmlns:xlink="http://www.w3.org/1999/xlink" x="0px" y="0px"
	 width="180px" height="120px" viewBox="0 0 180 120" enable-background="new 0 0 180 120" xml:space="preserve">
<g>
	<path d="M30,52.5v58.125c0,5.17,4.205,9.375,9.375,9.375h22.5h7.5H86.25H97.5h24.375h18.75c5.17,0,9.375-4.205,9.375-9.375v-75
		c0-5.169-4.205-9.375-9.375-9.375h-21.216c3.617-1.678,7.502-3.945,10.425-6.868c3.482-3.48,5.702-6.761,6.599-9.752
		c0.921-3.071,0.388-5.801-1.5-7.688c-1.884-1.89-4.614-2.422-7.688-1.5c-2.991,0.898-6.272,3.116-9.752,6.598
		c-4.212,4.209-7.069,10.414-8.743,14.927c-1.674-4.513-4.531-10.717-8.743-14.927c-3.479-3.482-6.761-5.7-9.752-6.598
		c-3.069-0.922-5.802-0.39-7.688,1.5c-1.888,1.886-2.421,4.616-1.5,7.688c0.898,2.991,3.118,6.272,6.599,9.752
		c2.923,2.923,6.81,5.19,10.425,6.868H76.875c-5.17,0-9.375,4.206-9.375,9.375v9.424c-1.571-1.191-3.506-1.924-5.625-1.924h-2.747
		c0.46-0.347,0.896-0.718,1.294-1.116c1.618-1.62,2.658-3.176,3.094-4.629c0.508-1.686,0.174-3.275-0.909-4.359
		c-1.086-1.085-2.678-1.417-4.359-0.909c-1.455,0.435-3.011,1.476-4.63,3.094c-1.254,1.254-2.242,2.882-2.99,4.427
		c-0.748-1.545-1.736-3.172-2.99-4.427c-1.621-1.618-3.177-2.659-4.63-3.094c-1.681-0.508-3.274-0.176-4.359,0.909
		c-1.083,1.084-1.415,2.674-0.909,4.359c0.436,1.455,1.476,3.011,3.094,4.629c0.397,0.399,0.834,0.771,1.293,1.116h-2.75
		C34.205,43.125,30,47.331,30,52.5z M127.5,97.5H99.375V90H127.5V97.5z M99.375,71.25h22.5c3.102,0,5.625,2.523,5.625,5.625v9.375
		H99.375V71.25z M94.806,66.444c0.87-2.254,2.252-5.138,4.149-7.035c2.042-2.043,3.484-2.775,4.335-3.03
		c0.286-0.088,0.542-0.129,0.759-0.129c0.303,0,0.539,0.083,0.705,0.248c0.283,0.283,0.322,0.776,0.117,1.462
		c-0.256,0.853-0.986,2.293-3.03,4.337C99.943,64.192,97.06,65.576,94.806,66.444z M81.911,62.297
		c-2.044-2.044-2.774-3.486-3.03-4.337c-0.207-0.686-0.166-1.179,0.117-1.462c0.164-0.165,0.4-0.248,0.703-0.248
		c0.217,0,0.473,0.041,0.761,0.131c0.851,0.255,2.291,0.986,4.335,3.03c1.897,1.897,3.279,4.781,4.149,7.035
		C86.69,65.576,83.807,64.192,81.911,62.297z M84.375,71.25v15H56.25v-9.375c0-3.102,2.523-5.625,5.625-5.625H84.375z M84.375,97.5
		H56.25V90h28.125V97.5z M54.424,116.25h-7.549V46.875h7.5V71.25h0.049c-1.191,1.571-1.924,3.506-1.924,5.625v33.75
		C52.5,112.744,53.232,114.679,54.424,116.25z M47.562,41.942c-1.422-0.626-2.984-1.487-4.081-2.584
		c-1.54-1.539-2.011-2.574-2.155-3.054c-0.09-0.304-0.103-0.559-0.029-0.632c0.033-0.03,0.1-0.047,0.189-0.047
		c0.116,0,0.271,0.026,0.442,0.077c0.479,0.145,1.515,0.615,3.054,2.155C46.045,38.917,46.916,40.476,47.562,41.942z M59.924,36.304
		c-0.145,0.48-0.615,1.515-2.155,3.054c-1.062,1.06-2.619,1.932-4.085,2.58c0.626-1.423,1.486-2.985,2.584-4.082
		c1.539-1.54,2.574-2.01,3.054-2.155c0.173-0.05,0.328-0.077,0.442-0.077c0.09,0,0.156,0.017,0.189,0.047
		C60.026,35.747,60.014,36,59.924,36.304z M67.5,52.5v15h-5.625c-1.335,0-2.599,0.289-3.75,0.795v-21.42h3.75
		C64.977,46.875,67.5,49.399,67.5,52.5z M105.955,25.326c-4.139-1.38-11.271-4.23-15.638-8.597
		c-3.784-3.782-5.164-6.534-5.657-8.177c-0.521-1.736-0.334-3.065,0.559-3.958c0.564-0.564,1.305-0.846,2.211-0.846
		c0.528,0,1.109,0.096,1.749,0.287c1.643,0.493,4.394,1.875,8.177,5.657C101.732,14.068,104.574,21.193,105.955,25.326z
		 M127.184,16.73c-4.377,4.376-11.502,7.221-15.637,8.599c1.381-4.138,4.23-11.271,8.598-15.638
		c3.781-3.784,6.534-5.164,8.177-5.657c0.64-0.191,1.224-0.287,1.751-0.287c0.908,0,1.645,0.281,2.209,0.846
		c0.891,0.893,1.08,2.224,0.559,3.96C132.347,10.196,130.967,12.947,127.184,16.73z M140.625,116.25h-11.299
		c1.191-1.571,1.924-3.506,1.924-5.625v-33.75c0-5.17-4.205-9.375-9.375-9.375h-20.707c1.195-0.732,2.348-1.578,3.32-2.552
		c2.083-2.083,3.42-4.071,3.971-5.91c0.617-2.049,0.24-3.895-1.057-5.19c-1.296-1.299-3.145-1.672-5.19-1.06
		c-1.837,0.551-3.827,1.886-5.91,3.971c-1.954,1.954-3.411,4.615-4.427,6.955c-1.016-2.34-2.473-5.001-4.427-6.955
		c-2.083-2.085-4.073-3.42-5.91-3.971c-2.044-0.613-3.895-0.238-5.192,1.06c-1.297,1.295-1.672,3.139-1.057,5.19
		c0.551,1.837,1.888,3.827,3.971,5.91c0.972,0.972,2.123,1.817,3.32,2.552H71.25v-15V35.625c0-3.101,2.523-5.625,5.625-5.625h27.349
		h9.053h27.349c3.102,0,5.625,2.524,5.625,5.625v75C146.25,113.727,143.727,116.25,140.625,116.25z M121.875,116.25h-22.5v-15H127.5
		v9.375C127.5,113.727,124.977,116.25,121.875,116.25z M88.125,116.25v-45h7.5v45H88.125z M61.875,116.25
		c-3.102,0-5.625-2.523-5.625-5.625v-9.375h28.125v15h-15H61.875z M33.75,52.5c0-3.101,2.523-5.625,5.625-5.625h3.75v69.375h-3.75
		c-3.102,0-5.625-2.523-5.625-5.625V52.5z"/>
</g>
</svg>
