<?xml version="1.0" encoding="utf-8"?>
<!-- Generator: Adobe Illustrator 16.0.0, SVG Export Plug-In . SVG Version: 6.00 Build 0)  -->
<!DOCTYPE svg PUBLIC "-//W3C//DTD SVG 1.1//EN" "http://www.w3.org/Graphics/SVG/1.1/DTD/svg11.dtd">
<svg version="1.1" id="Layer_1" xmlns="http://www.w3.org/2000/svg" xmlns:xlink="http://www.w3.org/1999/xlink" x="0px" y="0px"
	 width="180px" height="120px" viewBox="0 0 180 120" enable-background="new 0 0 180 120" xml:space="preserve">
<path fill="#A8A8A8" d="M30.825,14.684l12.147,12.147c0.295,0.294,0.676,0.487,1.087,0.551l15.545,4.994
	c0,0,2.164,2.164,2.176,2.176l35.158,35.157c0.382,0.383,0.884,0.574,1.386,0.574s1.003-0.191,1.386-0.574
	c0.765-0.765,0.765-2.006,0-2.771L89.468,56.697c2.531-1.935,5.61-2.986,8.855-2.986c8.058,0,14.612,6.556,14.612,14.613
	c0,8.058-6.555,14.612-14.612,14.612c-8.057,0-14.613-6.555-14.613-14.612c0-1.438,0.208-2.857,0.618-4.22
	c0.312-1.038-0.277-2.131-1.313-2.441c-1.037-0.312-2.129,0.276-2.441,1.312c-0.52,1.729-0.783,3.528-0.783,5.349
	c0,10.219,8.313,18.533,18.532,18.533c10.219,0,18.533-8.314,18.533-18.533s-8.314-18.532-18.533-18.532
	c-4.294,0-8.362,1.449-11.647,4.113l-8.981-8.98c5.699-5.032,12.964-7.786,20.628-7.786c17.195,0,31.185,13.99,31.185,31.185
	s-13.989,31.185-31.185,31.185c-17.196,0-31.185-13.989-31.185-31.185c0-5.74,1.569-11.349,4.536-16.217
	c0.563-0.925,0.27-2.13-0.654-2.694c-0.924-0.563-2.131-0.271-2.693,0.654c-3.341,5.483-5.108,11.796-5.108,18.257
	c0,19.356,15.748,35.104,35.105,35.104c19.356,0,35.104-15.748,35.104-35.104c0-19.357-15.748-35.105-35.104-35.105
	c-8.71,0-16.961,3.161-23.403,8.93l-8.959-8.959c8.835-8.154,20.251-12.624,32.362-12.624c26.333,0,47.757,21.424,47.757,47.758
	c0,26.333-21.424,47.757-47.757,47.757c-26.333,0-47.758-21.424-47.758-47.757c0-10.157,3.138-19.85,9.075-28.032
	c0.636-0.876,0.44-2.102-0.436-2.737s-2.102-0.441-2.738,0.436c-6.425,8.855-9.821,19.344-9.821,30.333
	c0,13.813,5.373,26.794,15.128,36.549C71.528,114.628,84.508,120,98.323,120c13.813,0,26.794-5.372,36.549-15.127
	C144.628,95.118,150,82.138,150,68.323c0-13.815-5.372-26.795-15.129-36.55c-9.754-9.755-22.734-15.128-36.549-15.128
	c-13.159,0-25.557,4.877-35.136,13.771l-0.812-0.813l-4.994-15.544c-0.064-0.412-0.256-0.792-0.551-1.087L44.683,0.824
	c-0.6-0.6-1.516-0.746-2.273-0.362c-0.756,0.383-1.18,1.209-1.05,2.046l1.613,11.489L32.509,11.36
	c-0.835-0.131-1.663,0.294-2.047,1.05C30.078,13.167,30.224,14.083,30.825,14.684z M56.662,24.914l-9.505-10.529l-1.01-6.554
	l7.458,7.458L56.662,24.914z M45.29,23.605l-7.458-7.458l6.554,1.01l9.505,9.506L45.29,23.605L45.29,23.605z"/>
</svg>
