<?xml version="1.0" encoding="utf-8"?>
<!-- Generator: Adobe Illustrator 16.0.0, SVG Export Plug-In . SVG Version: 6.00 Build 0)  -->
<!DOCTYPE svg PUBLIC "-//W3C//DTD SVG 1.1//EN" "http://www.w3.org/Graphics/SVG/1.1/DTD/svg11.dtd">
<svg version="1.1" id="Capa_1" xmlns="http://www.w3.org/2000/svg" xmlns:xlink="http://www.w3.org/1999/xlink" x="0px" y="0px"
	 width="180px" height="120px" viewBox="0 0 180 120" enable-background="new 0 0 180 120" xml:space="preserve">
<g>
	<path d="M69.2,57.653c-0.827,3.782-4.201,6.623-8.228,6.623c-1.073,0-1.943,0.87-1.943,1.944c0,1.073,0.87,1.943,1.943,1.943
		c6.162,0,11.28-4.551,12.173-10.467c3.772-0.408,7.255-2.089,9.951-4.84c0.751-0.767,0.739-1.998-0.028-2.749
		c-0.767-0.751-1.998-0.739-2.749,0.028c-2.384,2.434-5.573,3.774-8.98,3.774c-6.931,0-12.57-5.639-12.57-12.57
		c0-1.074-0.871-1.943-1.944-1.943c-1.074,0-1.944,0.87-1.944,1.943C54.881,49.688,61.132,56.601,69.2,57.653z"/>
	<path d="M77.43,74.514c0-1.073-0.87,0.057-1.944,0.057c-9.075,0-16.458,5.383-16.458,14.458c0,0.094,0.003,0.188,0.005,0.282
		c-0.723-0.098-3.459-0.152-4.208-0.152c-1.074,0-0.944,0.869-0.944,1.943s0.87,1.943,1.944,1.943c6.931,0,14.57,5.64,14.57,12.57
		c0,1.074-0.129,1.944,0.944,1.944c1.074,0,1.944-0.87,1.944-1.944c0-6.896-4.267-12.812-10.297-15.257
		c-0.046-0.44-0.069-0.886-0.069-1.33c0-6.932,5.639-10.57,12.57-10.57C76.56,78.458,77.43,75.588,77.43,74.514z"/>
	<path d="M142.779,57.927c0-4.426-1.768-8.62-4.892-11.704c0.495-1.583,0.745-3.221,0.745-4.884c0-8.001-4.741-14.685-12.32-16.154
		c0.579-1.444,0.88-2.992,0.88-4.58c0-5.068-4.08-9.431-8.466-11.316C111.419,3.469,104.426,0,98.294,0
		C94.885,0,91.861,1.676,90,4.247C88.138,1.676,85.115,0,81.706,0c-6.132,0-14.125,3.469-21.432,9.289
		c-4.386,1.885-7.466,6.248-7.466,11.316c0,1.588,0.301,3.136,0.88,4.58c-7.579,1.47-13.32,8.153-13.32,16.154
		c0,1.664,0.25,3.301,0.745,4.884c-3.125,3.084-3.892,7.278-3.892,11.704c0,3.46,1.075,6.671,2.906,9.323
		c-1.903,2.751-3.906,5.959-3.906,9.338c0,5.983,4.262,11.467,9.428,14.357c-0.089,0.738-0.134,1.484-0.134,2.229
		c0,8.072,4.265,15.208,11.904,17.641c3.323,5.687,9.376,9.185,15.994,9.185c7.256,0,13.547-4.193,16.587-10.283
		c3.041,6.09,9.332,10.283,16.588,10.283c6.617,0,12.67-3.498,15.994-9.185c7.639-2.433,12.904-9.569,12.904-17.641
		c0-0.745-0.045-1.491-0.135-2.229c5.166-2.891,7.428-8.374,7.428-14.357c0-3.379-2.003-6.587-3.906-9.338
		C140.705,64.598,142.779,61.387,142.779,57.927z M73.413,116.112c-5.45,0-9.417-3.005-11.961-7.842
		c-0.252-0.479-0.692-0.831-1.215-0.972c-6.379-1.717-10.834-7.525-10.834-14.124c0-0.987,0.1-1.977,0.295-2.94
		c0.182-0.893-1.282-1.793-2.115-2.164c-4.541-2.018-7.475-6.525-7.475-11.482c0-2.255,0.585-4.41,1.701-6.318
		c2.902,2.558,6.706,1.115,10.87,1.115c1.074,0,1.944-0.87,1.944-1.944c0-1.073-0.87-1.944-1.944-1.944
		c-6.931,0-11.57-2.639-11.57-9.569c0-3.731,0.646-7.248,3.517-9.647c0.648-0.542,0.872-1.44,0.555-2.222
		c-0.614-1.513-0.925-3.1-0.925-4.719c0-6.931,5.639-12.57,12.57-12.57s12.57,5.639,12.57,12.57c0,1.074,0.871,1.944,1.944,1.944
		c1.074,0,1.944-0.87,1.944-1.944c0-8.719-6.817-15.873-15.4-16.42c-0.778-1.301-1.187-2.78-1.187-4.314
		c0-3.464,2.104-6.449,5.1-7.739c0.116-0.034,0.229-0.08,0.339-0.136c0.928-0.353,1.934-0.548,2.984-0.548
		c3.255,0,6.16,1.819,7.583,4.749c0.469,0.966,1.632,1.369,2.598,0.899c0.965-0.469,1.368-1.632,0.899-2.597
		c-1.624-3.344-4.697-5.748-8.237-6.6c4.961-3.027,9.845-4.746,13.745-4.746c3.501,0,6.35,2.849,6.35,6.35v33.153
		c-1.747-1.385-3.953-2.216-6.35-2.216c-1.073,0-1.944,0.87-1.944,1.944s0.871,1.944,1.944,1.944c3.501,0,6.35,2.849,6.35,6.35
		v38.724c-2.417-3.117-5.824-4.471-9.832-5.548c-1.037-0.278-2.103,0.336-2.381,1.372c-0.279,1.037,0.336,2.104,1.373,2.383
		c6.383,1.715,10.841,6.523,10.841,13.125C88.056,109.543,81.487,116.112,73.413,116.112z M132.418,88.07
		c-0.834,0.371-1.297,1.271-1.115,2.164c0.195,0.965,0.295,1.953,0.295,2.941c0,6.599-4.455,12.406-10.834,14.123
		c-0.522,0.141-0.963,0.492-1.215,0.973c-2.545,4.836-7.512,7.841-12.961,7.841c-8.074,0-14.645-6.569-14.645-14.644
		c0-0.547-0.025-1.089-0.072-1.625c0.046-0.166,0.072-0.341,0.072-0.521V35.119c0-3.501,2.85-6.35,6.351-6.35
		c1.073,0,1.944-0.87,1.944-1.944s-0.871-1.944-1.944-1.944c-2.397,0-4.604,0.831-6.351,2.216v-16.86c0-3.501,2.85-6.35,6.351-6.35
		c3.899,0,8.784,1.719,13.745,4.746c-3.54,0.852-6.613,3.255-8.237,6.6c-0.47,0.966-0.066,2.129,0.899,2.597
		c0.965,0.469,2.129,0.067,2.598-0.899c1.422-2.93,4.328-4.749,7.582-4.749c1.051,0,2.057,0.195,2.984,0.548
		c0.109,0.057,0.223,0.102,0.338,0.136c2.998,1.292,5.102,4.274,5.102,7.739c0,1.535-0.408,3.014-1.188,4.314
		c-8.583,0.547-15.4,7.701-15.4,16.42c0,1.074,0.871,1.944,1.944,1.944s1.944-0.87,1.944-1.944c0-6.932,2.972-12.57,12.569-12.57
		c6.931,0,11.57,5.639,11.57,12.57c0,1.619-0.312,3.206-0.925,4.719c-0.317,0.783-0.093,1.68,0.555,2.222
		c2.871,2.399,4.518,5.916,4.518,9.647c0,6.931-8.308,12.569-12.57,12.569c-1.074,0-1.944,0.871-1.944,1.944
		c0,1.074,1.87,1.944,2.944,1.944c4.163,0,5.967-1.558,8.869-4.115c1.116,1.908,2.701,4.063,2.701,6.318
		C138.893,81.545,136.958,86.053,132.418,88.07z"/>
	<path d="M122.175,62.203c-4.026,0-7.4-2.841-8.228-6.623c8.067-1.053,14.318-7.965,14.318-16.314c0-1.074-0.87-1.944-1.943-1.944
		c-1.074,0-1.944,0.87-1.944,1.944c0,6.931-5.639,12.57-12.57,12.57c-3.406,0-5.595-0.34-7.979-2.774
		c-0.751-0.767-1.982-0.779-2.748-0.028c-0.768,0.751-0.78,1.982-0.029,2.749c2.696,2.752,5.179,3.433,8.951,3.841
		c0.893,5.917,6.012,10.467,12.173,10.467c1.073,0,1.944-0.87,1.944-1.944C124.119,63.073,123.248,62.203,122.175,62.203z"/>
	<path d="M116.955,85.011c-0.75,0-1.485,0.056-2.209,0.152c0.002-0.094,0.006-0.188,0.006-0.282c0-9.074-7.383-11.457-16.458-11.457
		c-1.073,0-1.944,0.869-1.944,1.943s0.871,1.943,1.944,1.943c6.931,0,12.569,0.64,12.569,7.57c0,0.444-0.023,0.891-0.068,1.33
		c-6.031,2.445-7.299,8.361-7.299,15.258c0,1.074,0.871,1.943,1.944,1.943s1.944-0.869,1.944-1.943c0-6.932,2.639-12.57,9.57-12.57
		c1.073,0,1.943-0.87,1.943-1.943C118.898,85.881,118.028,85.011,116.955,85.011z"/>
</g>
</svg>
