<?xml version="1.0" encoding="utf-8"?>
<!-- Generator: Adobe Illustrator 16.0.0, SVG Export Plug-In . SVG Version: 6.00 Build 0)  -->
<!DOCTYPE svg PUBLIC "-//W3C//DTD SVG 1.1//EN" "http://www.w3.org/Graphics/SVG/1.1/DTD/svg11.dtd">
<svg version="1.1" id="Layer_1" xmlns="http://www.w3.org/2000/svg" xmlns:xlink="http://www.w3.org/1999/xlink" x="0px" y="0px"
	 width="180px" height="120px" viewBox="0 0 180 120" enable-background="new 0 0 180 120" xml:space="preserve">
<g>
	<path d="M149.439,111.314l-14.947-14.946c-0.359-0.359-0.846-0.562-1.354-0.562c-0.509,0-0.995,0.202-1.354,0.562l-1.354,1.354
		l-2.769-2.769c3.737-4.355,5.998-10.012,5.998-16.188c0-13.727-11.167-24.894-24.894-24.894S83.872,65.039,83.872,78.766
		s11.167,24.894,24.894,24.894c6.176,0,11.832-2.261,16.188-5.997l2.769,2.768l-1.354,1.354c-0.358,0.359-0.561,0.847-0.561,1.354
		s0.202,0.994,0.561,1.354l14.947,14.947c0.375,0.374,0.865,0.561,1.354,0.561c0.49,0,0.98-0.187,1.354-0.561l5.416-5.416
		C150.188,113.275,150.188,112.062,149.439,111.314z M87.702,78.766c0-11.615,9.449-21.064,21.064-21.064
		c11.614,0,21.063,9.449,21.063,21.064c0,11.614-9.449,21.063-21.063,21.063C97.15,99.829,87.702,90.38,87.702,78.766z
		 M142.669,115.377l-12.239-12.238l2.708-2.709l12.239,12.24L142.669,115.377z"/>
	<path d="M88.524,99.829H33.83V88.34h45.267c1.058,0,1.915-0.857,1.915-1.915s-0.857-1.915-1.915-1.915H33.83V3.83h50.147v20.958
		c0,1.058,0.857,1.915,1.915,1.915h20.958v21.424c0,1.058,0.856,1.915,1.915,1.915c1.058,0,1.914-0.857,1.914-1.915V24.788
		c0-0.064-0.002-0.128-0.01-0.191c-0.004-0.047-0.012-0.093-0.02-0.139c-0.004-0.016-0.004-0.031-0.008-0.047
		c-0.011-0.056-0.025-0.11-0.041-0.164c-0.002-0.006-0.002-0.012-0.004-0.017c-0.018-0.055-0.037-0.109-0.059-0.162
		c-0.002-0.005-0.003-0.01-0.005-0.015c-0.021-0.05-0.044-0.098-0.069-0.146c-0.004-0.008-0.007-0.016-0.011-0.023
		c-0.023-0.043-0.05-0.085-0.075-0.126c-0.008-0.012-0.014-0.024-0.021-0.036c-0.025-0.038-0.053-0.073-0.081-0.109
		c-0.011-0.013-0.021-0.028-0.031-0.041c-0.03-0.038-0.063-0.073-0.097-0.107c-0.01-0.01-0.019-0.021-0.028-0.031L87.247,0.561
		c-0.01-0.01-0.021-0.018-0.031-0.028c-0.035-0.034-0.07-0.067-0.107-0.097c-0.014-0.011-0.028-0.021-0.042-0.031
		c-0.036-0.028-0.072-0.056-0.109-0.081c-0.011-0.007-0.023-0.014-0.036-0.021c-0.041-0.026-0.083-0.052-0.125-0.076
		c-0.008-0.004-0.016-0.007-0.024-0.011c-0.048-0.025-0.096-0.048-0.146-0.069c-0.004-0.002-0.009-0.003-0.014-0.005
		C86.559,0.12,86.505,0.1,86.45,0.083c-0.006-0.001-0.012-0.002-0.017-0.004c-0.054-0.016-0.108-0.03-0.164-0.042
		c-0.015-0.003-0.031-0.004-0.047-0.007c-0.046-0.008-0.092-0.016-0.139-0.021C86.02,0.003,85.956,0,85.892,0H31.915
		C30.857,0,30,0.857,30,1.915v99.829c0,1.058,0.857,1.915,1.915,1.915h56.609c1.058,0,1.915-0.857,1.915-1.915
		S89.582,99.829,88.524,99.829L88.524,99.829z M87.807,6.538l16.335,16.335H87.807V6.538z"/>
	<path d="M99.191,30.448v11.649c0,1.058,0.856,1.915,1.914,1.915c1.059,0,1.915-0.857,1.915-1.915V30.448
		c0-1.058-0.856-1.915-1.915-1.915C100.048,28.533,99.191,29.39,99.191,30.448z"/>
	<path d="M80.147,9.574c0-1.058-0.857-1.915-1.915-1.915H39.574c-1.058,0-1.915,0.857-1.915,1.915v69.191
		c0,1.058,0.857,1.914,1.915,1.914c1.058,0,1.915-0.856,1.915-1.914V11.489h36.743C79.291,11.489,80.147,10.632,80.147,9.574z"/>
	<path d="M108.766,61.531c-9.503,0-17.234,7.731-17.234,17.234S99.263,96,108.766,96S126,88.269,126,78.766
		S118.269,61.531,108.766,61.531z M108.766,92.17c-7.391,0-13.404-6.014-13.404-13.404s6.014-13.404,13.404-13.404
		s13.404,6.014,13.404,13.404S116.156,92.17,108.766,92.17z"/>
	<path d="M86.928,53.954V32.485c0-0.008,0-0.037,0-0.037c0-0.018-0.002-0.034-0.002-0.051c-0.001-0.042-0.002-0.084-0.006-0.126
		c-0.003-0.032-0.008-0.062-0.013-0.093c-0.004-0.031-0.008-0.061-0.014-0.091c-0.008-0.042-0.019-0.084-0.029-0.125
		c-0.004-0.016-0.007-0.033-0.012-0.049c-0.017-0.056-0.033-0.099-0.049-0.143c-0.006-0.017-0.012-0.034-0.019-0.05
		c-0.016-0.038-0.033-0.074-0.051-0.11c-0.011-0.022-0.021-0.044-0.032-0.065c-0.014-0.025-0.029-0.049-0.043-0.073
		c-0.018-0.03-0.035-0.061-0.055-0.09c-0.008-0.011-0.017-0.022-0.024-0.033c-0.1-0.141-0.216-0.268-0.347-0.376
		c-0.005-0.004-0.011-0.008-0.017-0.013c-0.042-0.034-0.084-0.066-0.128-0.096c-0.023-0.016-0.048-0.029-0.072-0.044
		c-0.028-0.017-0.055-0.035-0.083-0.05c-0.032-0.018-0.065-0.032-0.098-0.048c-0.023-0.011-0.045-0.022-0.068-0.033
		c-0.029-0.013-0.061-0.023-0.091-0.034c-0.028-0.01-0.056-0.021-0.084-0.031c-0.023-0.007-0.048-0.013-0.071-0.019
		c-0.038-0.01-0.075-0.021-0.113-0.029c-0.017-0.003-0.035-0.005-0.052-0.009c-0.046-0.008-0.092-0.016-0.139-0.021
		c-0.013-0.001-0.027-0.001-0.041-0.003c-0.05-0.004-0.101-0.007-0.152-0.008c-0.024,0-0.038,0.001-0.053,0.002
		c-0.045,0.001-0.09,0.002-0.136,0.007c-0.03,0.003-0.059,0.008-0.089,0.012c-0.032,0.005-0.063,0.008-0.095,0.015
		c-0.042,0.008-0.083,0.019-0.125,0.03c-0.017,0.004-0.033,0.007-0.049,0.011l-0.028,0.008c-0.008,0.003-19.913,5.806-19.913,5.806
		v-6.119l11.232-3.275c1.016-0.296,1.599-1.359,1.303-2.375c-0.296-1.015-1.358-1.598-2.375-1.302L62.085,27.03
		c-0.817,0.238-1.379,0.987-1.379,1.838v10.071c0,0.008,0,15.31,0,15.31c-1.314-0.757-2.88-1.199-4.562-1.199
		c-4.627,0-8.392,3.334-8.392,7.433c0,4.098,3.764,7.432,8.392,7.432s8.392-3.334,8.392-7.432v-20.07L83.098,35v12.72
		c-1.314-0.757-2.881-1.199-4.562-1.199c-4.627,0-8.392,3.334-8.392,7.433s3.765,7.432,8.392,7.432
		C83.163,61.386,86.928,58.052,86.928,53.954L86.928,53.954z M56.145,64.085c-2.516,0-4.562-1.616-4.562-3.603
		s2.046-3.603,4.562-3.603c2.515,0,4.562,1.616,4.562,3.603S58.66,64.085,56.145,64.085z M78.536,57.556
		c-2.516,0-4.562-1.616-4.562-3.602s2.047-3.603,4.562-3.603c2.515,0,4.562,1.616,4.562,3.603S81.051,57.556,78.536,57.556z"/>
</g>
</svg>
