<?xml version="1.0" encoding="utf-8"?>
<!-- Generator: Adobe Illustrator 16.0.0, SVG Export Plug-In . SVG Version: 6.00 Build 0)  -->
<!DOCTYPE svg PUBLIC "-//W3C//DTD SVG 1.1//EN" "http://www.w3.org/Graphics/SVG/1.1/DTD/svg11.dtd">
<svg version="1.1" id="Layer_1" xmlns="http://www.w3.org/2000/svg" xmlns:xlink="http://www.w3.org/1999/xlink" x="0px" y="0px"
	 width="180px" height="120px" viewBox="0 0 180 120" enable-background="new 0 0 180 120" xml:space="preserve">
<g>
	<path d="M90,100.852c-3.167,0-5.745,2.576-5.745,5.744s2.577,5.744,5.745,5.744c3.168,0,5.744-2.576,5.744-5.744
		S93.168,100.852,90,100.852z M90,108.511c-1.056,0-1.915-0.858-1.915-1.915s0.859-1.915,1.915-1.915
		c1.057,0,1.915,0.858,1.915,1.915S91.057,108.511,90,108.511z"/>
	<path d="M114.023,0H65.977c-6.815,0-12.359,5.544-12.359,12.36v95.281c0,6.814,5.544,12.359,12.359,12.359h48.047
		c6.814,0,12.359-5.545,12.359-12.359V12.36C126.383,5.544,120.838,0,114.023,0z M57.447,19.149h65.106v74.042H57.447V19.149z
		 M65.977,3.83h48.047c4.703,0,8.529,3.827,8.529,8.53v2.959H57.447V12.36C57.447,7.656,61.273,3.83,65.977,3.83z M114.023,116.17
		H65.977c-4.703,0-8.53-3.826-8.53-8.529V97.021h65.106v10.619C122.553,112.344,118.727,116.17,114.023,116.17z"/>
	<path d="M89.667,11.489h16.156c1.057,0,1.914-0.857,1.914-1.915c0-1.058-0.857-1.915-1.914-1.915H89.667
		c-1.058,0-1.916,0.857-1.916,1.915C87.751,10.632,88.609,11.489,89.667,11.489z"/>
	<path d="M75.491,11.489h8.687c0.568,0,1.029-0.857,1.029-1.915c0-1.058-0.461-1.915-1.029-1.915h-8.687
		c-0.569,0-1.03,0.857-1.03,1.915C74.461,10.632,74.922,11.489,75.491,11.489z"/>
	<g>
		<path d="M109.059,44.243h-9.327c-1.229,0.127-2.474,0.015-3.729-0.031c-0.081-0.003-0.158-0.022-0.238-0.031
			c-0.032,0.001-0.062,0.005-0.095,0.005c-3.449,0-5.704-1.831-6.802-4.234c-0.011-0.019-0.015-0.039-0.025-0.058
			c-0.028-0.05-0.064-0.094-0.091-0.146c-0.068-0.138-0.117-0.279-0.167-0.421l0.002,0.178l-4.515-8.432
			c-3.582-2.875-7.315-0.389-7.315-0.389c-0.368,0.236-0.715,0.513-1.032,0.83c-1.15,1.149-1.783,2.68-1.783,4.307
			s0.633,3.156,1.783,4.307C76.598,41,79.447,42.65,82.4,44.243H71.736c-2.215,0-4.017,1.802-4.017,4.018v6.22
			c0,1.074,0.869,1.944,1.943,1.944h0.129v18.79c0,2.215,1.803,4.018,4.018,4.018h33.176c2.215,0,4.018-1.803,4.018-4.018v-18.79
			h0.129c1.074,0,1.943-0.87,1.943-1.944v-6.22C113.075,46.045,111.273,44.243,109.059,44.243z M78.472,37.377
			c-0.416-0.416-0.645-0.969-0.645-1.557c0-0.589,0.229-1.142,0.646-1.559c0.416-0.416,0.97-0.645,1.558-0.645
			s1.142,0.229,1.558,0.645h0.001c0.588,0.593,2.382,3.758,4.326,7.442C82.229,39.76,79.065,37.967,78.472,37.377z M88.454,75.345
			H73.81c-0.07,0-0.129-0.058-0.129-0.13v-18.79h14.773V75.345z M88.454,52.537H71.606v-4.276c0-0.071,0.059-0.13,0.13-0.13h16.718
			V52.537z M107.114,75.215c0,0.072-0.059,0.13-0.129,0.13H92.341v-18.92h14.773V75.215z M109.188,52.537H92.341v-4.406h16.718
			c0.071,0,0.13,0.059,0.13,0.13V52.537z"/>
		<path d="M109.059,44.243h-9.327c-1.229,0.127-2.474,0.015-3.729-0.031c-0.081-0.003-0.158-0.022-0.238-0.031
			c-0.032,0.001-0.062,0.005-0.095,0.005c-3.449,0-5.704-1.831-6.802-4.234c-0.011-0.019-0.015-0.039-0.025-0.058
			c-0.028-0.05-0.064-0.094-0.091-0.146c-0.068-0.138-0.117-0.279-0.167-0.421l0.002,0.178l-4.515-8.432
			c-3.582-2.875-7.315-0.389-7.315-0.389c-0.368,0.236-0.715,0.513-1.032,0.83c-1.15,1.149-1.783,2.68-1.783,4.307
			s0.633,3.156,1.783,4.307C76.598,41,79.447,42.65,82.4,44.243H71.736c-2.215,0-4.017,1.802-4.017,4.018v6.22
			c0,1.074,0.869,1.944,1.943,1.944h0.129v18.79c0,2.215,1.803,4.018,4.018,4.018h33.176c2.215,0,4.018-1.803,4.018-4.018v-18.79
			h0.129c1.074,0,1.943-0.87,1.943-1.944v-6.22C113.075,46.045,111.273,44.243,109.059,44.243z M78.472,37.377
			c-0.416-0.416-0.645-0.969-0.645-1.557c0-0.589,0.229-1.142,0.646-1.559c0.416-0.416,0.97-0.645,1.558-0.645
			s1.142,0.229,1.558,0.645h0.001c0.588,0.593,2.382,3.758,4.326,7.442C82.229,39.76,79.065,37.967,78.472,37.377z M88.454,75.345
			H73.81c-0.07,0-0.129-0.058-0.129-0.13v-18.79h14.773V75.345z M88.454,52.537H71.606v-4.276c0-0.071,0.059-0.13,0.13-0.13h16.718
			V52.537z M107.114,75.215c0,0.072-0.059,0.13-0.129,0.13H92.341v-18.92h14.773V75.215z M109.188,52.537H92.341v-4.406h16.718
			c0.071,0,0.13,0.059,0.13,0.13V52.537z"/>
		<path d="M109.059,44.243h-9.327c-1.229,0.127-2.474,0.015-3.729-0.031c-0.081-0.003-0.158-0.022-0.238-0.031
			c-0.032,0.001-0.062,0.005-0.095,0.005c-3.449,0-5.704-1.831-6.802-4.234c-0.011-0.019-0.015-0.039-0.025-0.058
			c-0.028-0.05-0.064-0.094-0.091-0.146c-0.068-0.138-0.117-0.279-0.167-0.421l0.002,0.178l-4.515-8.432
			c-3.582-2.875-7.315-0.389-7.315-0.389c-0.368,0.236-0.715,0.513-1.032,0.83c-1.15,1.149-1.783,2.68-1.783,4.307
			s0.633,3.156,1.783,4.307C76.598,41,79.447,42.65,82.4,44.243H71.736c-2.215,0-4.017,1.802-4.017,4.018v6.22
			c0,1.074,0.869,1.944,1.943,1.944h0.129v18.79c0,2.215,1.803,4.018,4.018,4.018h33.176c2.215,0,4.018-1.803,4.018-4.018v-18.79
			h0.129c1.074,0,1.943-0.87,1.943-1.944v-6.22C113.075,46.045,111.273,44.243,109.059,44.243z M78.472,37.377
			c-0.416-0.416-0.645-0.969-0.645-1.557c0-0.589,0.229-1.142,0.646-1.559c0.416-0.416,0.97-0.645,1.558-0.645
			s1.142,0.229,1.558,0.645h0.001c0.588,0.593,2.382,3.758,4.326,7.442C82.229,39.76,79.065,37.967,78.472,37.377z M88.454,75.345
			H73.81c-0.07,0-0.129-0.058-0.129-0.13v-18.79h14.773V75.345z M88.454,52.537H71.606v-4.276c0-0.071,0.059-0.13,0.13-0.13h16.718
			V52.537z M107.114,75.215c0,0.072-0.059,0.13-0.129,0.13H92.341v-18.92h14.773V75.215z M109.188,52.537H92.341v-4.406h16.718
			c0.071,0,0.13,0.059,0.13,0.13V52.537z"/>
		<path d="M109.059,44.243h-9.327c-1.229,0.127-2.474,0.015-3.729-0.031c-0.081-0.003-0.158-0.022-0.238-0.031
			c-0.032,0.001-0.062,0.005-0.095,0.005c-3.449,0-5.704-1.831-6.802-4.234c-0.011-0.019-0.015-0.039-0.025-0.058
			c-0.028-0.05-0.064-0.094-0.091-0.146c-0.068-0.138-0.117-0.279-0.167-0.421l0.002,0.178l-4.515-8.432
			c-3.582-2.875-7.315-0.389-7.315-0.389c-0.368,0.236-0.715,0.513-1.032,0.83c-1.15,1.149-1.783,2.68-1.783,4.307
			s0.633,3.156,1.783,4.307C76.598,41,79.447,42.65,82.4,44.243H71.736c-2.215,0-4.017,1.802-4.017,4.018v6.22
			c0,1.074,0.869,1.944,1.943,1.944h0.129v18.79c0,2.215,1.803,4.018,4.018,4.018h33.176c2.215,0,4.018-1.803,4.018-4.018v-18.79
			h0.129c1.074,0,1.943-0.87,1.943-1.944v-6.22C113.075,46.045,111.273,44.243,109.059,44.243z M78.472,37.377
			c-0.416-0.416-0.645-0.969-0.645-1.557c0-0.589,0.229-1.142,0.646-1.559c0.416-0.416,0.97-0.645,1.558-0.645
			s1.142,0.229,1.558,0.645h0.001c0.588,0.593,2.382,3.758,4.326,7.442C82.229,39.76,79.065,37.967,78.472,37.377z M88.454,75.345
			H73.81c-0.07,0-0.129-0.058-0.129-0.13v-18.79h14.773V75.345z M88.454,52.537H71.606v-4.276c0-0.071,0.059-0.13,0.13-0.13h16.718
			V52.537z M107.114,75.215c0,0.072-0.059,0.13-0.129,0.13H92.341v-18.92h14.773V75.215z M109.188,52.537H92.341v-4.406h16.718
			c0.071,0,0.13,0.059,0.13,0.13V52.537z"/>
		<path d="M109.059,44.243h-9.327c-1.229,0.127-2.474,0.015-3.729-0.031c-0.081-0.003-0.158-0.022-0.238-0.031
			c-0.032,0.001-0.062,0.005-0.095,0.005c-3.449,0-5.704-1.831-6.802-4.234c-0.011-0.019-0.015-0.039-0.025-0.058
			c-0.028-0.05-0.064-0.094-0.091-0.146c-0.068-0.138-0.117-0.279-0.167-0.421l0.002,0.178l-4.515-8.432
			c-3.582-2.875-7.315-0.389-7.315-0.389c-0.368,0.236-0.715,0.513-1.032,0.83c-1.15,1.149-1.783,2.68-1.783,4.307
			s0.633,3.156,1.783,4.307C76.598,41,79.447,42.65,82.4,44.243H71.736c-2.215,0-4.017,1.802-4.017,4.018v6.22
			c0,1.074,0.869,1.944,1.943,1.944h0.129v18.79c0,2.215,1.803,4.018,4.018,4.018h33.176c2.215,0,4.018-1.803,4.018-4.018v-18.79
			h0.129c1.074,0,1.943-0.87,1.943-1.944v-6.22C113.075,46.045,111.273,44.243,109.059,44.243z M78.472,37.377
			c-0.416-0.416-0.645-0.969-0.645-1.557c0-0.589,0.229-1.142,0.646-1.559c0.416-0.416,0.97-0.645,1.558-0.645
			s1.142,0.229,1.558,0.645h0.001c0.588,0.593,2.382,3.758,4.326,7.442C82.229,39.76,79.065,37.967,78.472,37.377z M88.454,75.345
			H73.81c-0.07,0-0.129-0.058-0.129-0.13v-18.79h14.773V75.345z M88.454,52.537H71.606v-4.276c0-0.071,0.059-0.13,0.13-0.13h16.718
			V52.537z M107.114,75.215c0,0.072-0.059,0.13-0.129,0.13H92.341v-18.92h14.773V75.215z M109.188,52.537H92.341v-4.406h16.718
			c0.071,0,0.13,0.059,0.13,0.13V52.537z"/>
		<path d="M109.059,44.243h-9.327c-1.229,0.127-2.474,0.015-3.729-0.031c-0.081-0.003-0.158-0.022-0.238-0.031
			c-0.032,0.001-0.062,0.005-0.095,0.005c-3.449,0-5.704-1.831-6.802-4.234c-0.011-0.019-0.015-0.039-0.025-0.058
			c-0.028-0.05-0.064-0.094-0.091-0.146c-0.068-0.138-0.117-0.279-0.167-0.421l0.002,0.178l-4.515-8.432
			c-3.582-2.875-7.315-0.389-7.315-0.389c-0.368,0.236-0.715,0.513-1.032,0.83c-1.15,1.149-1.783,2.68-1.783,4.307
			s0.633,3.156,1.783,4.307C76.598,41,79.447,42.65,82.4,44.243H71.736c-2.215,0-4.017,1.802-4.017,4.018v6.22
			c0,1.074,0.869,1.944,1.943,1.944h0.129v18.79c0,2.215,1.803,4.018,4.018,4.018h33.176c2.215,0,4.018-1.803,4.018-4.018v-18.79
			h0.129c1.074,0,1.943-0.87,1.943-1.944v-6.22C113.075,46.045,111.273,44.243,109.059,44.243z M78.472,37.377
			c-0.416-0.416-0.645-0.969-0.645-1.557c0-0.589,0.229-1.142,0.646-1.559c0.416-0.416,0.97-0.645,1.558-0.645
			s1.142,0.229,1.558,0.645h0.001c0.588,0.593,2.382,3.758,4.326,7.442C82.229,39.76,79.065,37.967,78.472,37.377z M88.454,75.345
			H73.81c-0.07,0-0.129-0.058-0.129-0.13v-18.79h14.773V75.345z M88.454,52.537H71.606v-4.276c0-0.071,0.059-0.13,0.13-0.13h16.718
			V52.537z M107.114,75.215c0,0.072-0.059,0.13-0.129,0.13H92.341v-18.92h14.773V75.215z M109.188,52.537H92.341v-4.406h16.718
			c0.071,0,0.13,0.059,0.13,0.13V52.537z"/>
	</g>
	<g>
		<path d="M104.751,40.127c1.15-1.15,1.783-2.68,1.783-4.307s-0.633-3.157-1.783-4.307c-0.317-0.317-0.664-0.594-1.032-0.83
			c0,0-3.733-2.486-7.315,0.389l-4.515,8.432l0.002-0.178c-0.05,0.142-0.099,0.283-0.167,0.421
			c-0.026,0.053-0.062,0.097-0.091,0.146c-0.011,0.019-0.015,0.039-0.025,0.058c-0.686,1.5-1.822,2.777-3.418,3.525
			c3.983,0.234,5.513,1.098,9.542,0.767C99.782,43.085,104.104,40.772,104.751,40.127z M102.647,35.82
			c0,0.588-0.229,1.141-0.645,1.557c-0.594,0.59-3.758,2.383-7.443,4.327c1.944-3.685,3.738-6.85,4.326-7.442h0.001
			c0.416-0.416,0.97-0.645,1.558-0.645s1.142,0.229,1.558,0.645C102.419,34.679,102.647,35.231,102.647,35.82z"/>
		<path d="M104.751,40.127c1.15-1.15,1.783-2.68,1.783-4.307s-0.633-3.157-1.783-4.307c-0.317-0.317-0.664-0.594-1.032-0.83
			c0,0-3.733-2.486-7.315,0.389l-4.515,8.432l0.002-0.178c-0.05,0.142-0.099,0.283-0.167,0.421
			c-0.026,0.053-0.062,0.097-0.091,0.146c-0.011,0.019-0.015,0.039-0.025,0.058c-0.686,1.5-1.822,2.777-3.418,3.525
			c3.983,0.234,5.513,1.098,9.542,0.767C99.782,43.085,104.104,40.772,104.751,40.127z M102.647,35.82
			c0,0.588-0.229,1.141-0.645,1.557c-0.594,0.59-3.758,2.383-7.443,4.327c1.944-3.685,3.738-6.85,4.326-7.442h0.001
			c0.416-0.416,0.97-0.645,1.558-0.645s1.142,0.229,1.558,0.645C102.419,34.679,102.647,35.231,102.647,35.82z"/>
		<path d="M104.751,40.127c1.15-1.15,1.783-2.68,1.783-4.307s-0.633-3.157-1.783-4.307c-0.317-0.317-0.664-0.594-1.032-0.83
			c0,0-3.733-2.486-7.315,0.389l-4.515,8.432l0.002-0.178c-0.05,0.142-0.099,0.283-0.167,0.421
			c-0.026,0.053-0.062,0.097-0.091,0.146c-0.011,0.019-0.015,0.039-0.025,0.058c-0.686,1.5-1.822,2.777-3.418,3.525
			c3.983,0.234,5.513,1.098,9.542,0.767C99.782,43.085,104.104,40.772,104.751,40.127z M102.647,35.82
			c0,0.588-0.229,1.141-0.645,1.557c-0.594,0.59-3.758,2.383-7.443,4.327c1.944-3.685,3.738-6.85,4.326-7.442h0.001
			c0.416-0.416,0.97-0.645,1.558-0.645s1.142,0.229,1.558,0.645C102.419,34.679,102.647,35.231,102.647,35.82z"/>
		<path d="M104.751,40.127c1.15-1.15,1.783-2.68,1.783-4.307s-0.633-3.157-1.783-4.307c-0.317-0.317-0.664-0.594-1.032-0.83
			c0,0-3.733-2.486-7.315,0.389l-4.515,8.432l0.002-0.178c-0.05,0.142-0.099,0.283-0.167,0.421
			c-0.026,0.053-0.062,0.097-0.091,0.146c-0.011,0.019-0.015,0.039-0.025,0.058c-0.686,1.5-1.822,2.777-3.418,3.525
			c3.983,0.234,5.513,1.098,9.542,0.767C99.782,43.085,104.104,40.772,104.751,40.127z M102.647,35.82
			c0,0.588-0.229,1.141-0.645,1.557c-0.594,0.59-3.758,2.383-7.443,4.327c1.944-3.685,3.738-6.85,4.326-7.442h0.001
			c0.416-0.416,0.97-0.645,1.558-0.645s1.142,0.229,1.558,0.645C102.419,34.679,102.647,35.231,102.647,35.82z"/>
		<path d="M104.751,40.127c1.15-1.15,1.783-2.68,1.783-4.307s-0.633-3.157-1.783-4.307c-0.317-0.317-0.664-0.594-1.032-0.83
			c0,0-3.733-2.486-7.315,0.389l-4.515,8.432l0.002-0.178c-0.05,0.142-0.099,0.283-0.167,0.421
			c-0.026,0.053-0.062,0.097-0.091,0.146c-0.011,0.019-0.015,0.039-0.025,0.058c-0.686,1.5-1.822,2.777-3.418,3.525
			c3.983,0.234,5.513,1.098,9.542,0.767C99.782,43.085,104.104,40.772,104.751,40.127z M102.647,35.82
			c0,0.588-0.229,1.141-0.645,1.557c-0.594,0.59-3.758,2.383-7.443,4.327c1.944-3.685,3.738-6.85,4.326-7.442h0.001
			c0.416-0.416,0.97-0.645,1.558-0.645s1.142,0.229,1.558,0.645C102.419,34.679,102.647,35.231,102.647,35.82z"/>
		<path d="M104.751,40.127c1.15-1.15,1.783-2.68,1.783-4.307s-0.633-3.157-1.783-4.307c-0.317-0.317-0.664-0.594-1.032-0.83
			c0,0-3.733-2.486-7.315,0.389l-4.515,8.432l0.002-0.178c-0.05,0.142-0.099,0.283-0.167,0.421
			c-0.026,0.053-0.062,0.097-0.091,0.146c-0.011,0.019-0.015,0.039-0.025,0.058c-0.686,1.5-1.822,2.777-3.418,3.525
			c3.983,0.234,5.513,1.098,9.542,0.767C99.782,43.085,104.104,40.772,104.751,40.127z M102.647,35.82
			c0,0.588-0.229,1.141-0.645,1.557c-0.594,0.59-3.758,2.383-7.443,4.327c1.944-3.685,3.738-6.85,4.326-7.442h0.001
			c0.416-0.416,0.97-0.645,1.558-0.645s1.142,0.229,1.558,0.645C102.419,34.679,102.647,35.231,102.647,35.82z"/>
	</g>
	<g>
		<path d="M96.358,32.832c-0.117-1.622-0.86-3.102-2.091-4.166c-1.23-1.063-2.802-1.586-4.424-1.468
			c-0.447,0.032-0.884,0.113-1.303,0.237c0,0-4.323,1.197-4.492,5.787l3.424,8.931l-0.133-0.118c0.074,0.131,0.149,0.26,0.209,0.402
			c0.022,0.054,0.032,0.11,0.052,0.164c0.007,0.021,0.02,0.036,0.026,0.057c0.687,1.5,0.909,3.195,0.431,4.892
			c2.783-2.859,4.437-3.451,6.822-6.716C95.345,38.525,96.424,33.744,96.358,32.832z M91.725,31.606
			c0.445,0.384,0.714,0.919,0.756,1.506c0.058,0.835-0.656,4.4-1.597,8.46c-1.515-3.881-2.734-7.309-2.799-8.141l0.001-0.001
			c-0.042-0.587,0.146-1.155,0.531-1.6s0.92-0.714,1.507-0.757C90.712,31.032,91.279,31.221,91.725,31.606z"/>
		<path d="M96.358,32.832c-0.117-1.622-0.86-3.102-2.091-4.166c-1.23-1.063-2.802-1.586-4.424-1.468
			c-0.447,0.032-0.884,0.113-1.303,0.237c0,0-4.323,1.197-4.492,5.787l3.424,8.931l-0.133-0.118c0.074,0.131,0.149,0.26,0.209,0.402
			c0.022,0.054,0.032,0.11,0.052,0.164c0.007,0.021,0.02,0.036,0.026,0.057c0.687,1.5,0.909,3.195,0.431,4.892
			c2.783-2.859,4.437-3.451,6.822-6.716C95.345,38.525,96.424,33.744,96.358,32.832z M91.725,31.606
			c0.445,0.384,0.714,0.919,0.756,1.506c0.058,0.835-0.656,4.4-1.597,8.46c-1.515-3.881-2.734-7.309-2.799-8.141l0.001-0.001
			c-0.042-0.587,0.146-1.155,0.531-1.6s0.92-0.714,1.507-0.757C90.712,31.032,91.279,31.221,91.725,31.606z"/>
		<path d="M96.358,32.832c-0.117-1.622-0.86-3.102-2.091-4.166c-1.23-1.063-2.802-1.586-4.424-1.468
			c-0.447,0.032-0.884,0.113-1.303,0.237c0,0-4.323,1.197-4.492,5.787l3.424,8.931l-0.133-0.118c0.074,0.131,0.149,0.26,0.209,0.402
			c0.022,0.054,0.032,0.11,0.052,0.164c0.007,0.021,0.02,0.036,0.026,0.057c0.687,1.5,0.909,3.195,0.431,4.892
			c2.783-2.859,4.437-3.451,6.822-6.716C95.345,38.525,96.424,33.744,96.358,32.832z M91.725,31.606
			c0.445,0.384,0.714,0.919,0.756,1.506c0.058,0.835-0.656,4.4-1.597,8.46c-1.515-3.881-2.734-7.309-2.799-8.141l0.001-0.001
			c-0.042-0.587,0.146-1.155,0.531-1.6s0.92-0.714,1.507-0.757C90.712,31.032,91.279,31.221,91.725,31.606z"/>
		<path d="M96.358,32.832c-0.117-1.622-0.86-3.102-2.091-4.166c-1.23-1.063-2.802-1.586-4.424-1.468
			c-0.447,0.032-0.884,0.113-1.303,0.237c0,0-4.323,1.197-4.492,5.787l3.424,8.931l-0.133-0.118c0.074,0.131,0.149,0.26,0.209,0.402
			c0.022,0.054,0.032,0.11,0.052,0.164c0.007,0.021,0.02,0.036,0.026,0.057c0.687,1.5,0.909,3.195,0.431,4.892
			c2.783-2.859,4.437-3.451,6.822-6.716C95.345,38.525,96.424,33.744,96.358,32.832z M91.725,31.606
			c0.445,0.384,0.714,0.919,0.756,1.506c0.058,0.835-0.656,4.4-1.597,8.46c-1.515-3.881-2.734-7.309-2.799-8.141l0.001-0.001
			c-0.042-0.587,0.146-1.155,0.531-1.6s0.92-0.714,1.507-0.757C90.712,31.032,91.279,31.221,91.725,31.606z"/>
		<path d="M96.358,32.832c-0.117-1.622-0.86-3.102-2.091-4.166c-1.23-1.063-2.802-1.586-4.424-1.468
			c-0.447,0.032-0.884,0.113-1.303,0.237c0,0-4.323,1.197-4.492,5.787l3.424,8.931l-0.133-0.118c0.074,0.131,0.149,0.26,0.209,0.402
			c0.022,0.054,0.032,0.11,0.052,0.164c0.007,0.021,0.02,0.036,0.026,0.057c0.687,1.5,0.909,3.195,0.431,4.892
			c2.783-2.859,4.437-3.451,6.822-6.716C95.345,38.525,96.424,33.744,96.358,32.832z M91.725,31.606
			c0.445,0.384,0.714,0.919,0.756,1.506c0.058,0.835-0.656,4.4-1.597,8.46c-1.515-3.881-2.734-7.309-2.799-8.141l0.001-0.001
			c-0.042-0.587,0.146-1.155,0.531-1.6s0.92-0.714,1.507-0.757C90.712,31.032,91.279,31.221,91.725,31.606z"/>
		<path d="M96.358,32.832c-0.117-1.622-0.86-3.102-2.091-4.166c-1.23-1.063-2.802-1.586-4.424-1.468
			c-0.447,0.032-0.884,0.113-1.303,0.237c0,0-4.323,1.197-4.492,5.787l3.424,8.931l-0.133-0.118c0.074,0.131,0.149,0.26,0.209,0.402
			c0.022,0.054,0.032,0.11,0.052,0.164c0.007,0.021,0.02,0.036,0.026,0.057c0.687,1.5,0.909,3.195,0.431,4.892
			c2.783-2.859,4.437-3.451,6.822-6.716C95.345,38.525,96.424,33.744,96.358,32.832z M91.725,31.606
			c0.445,0.384,0.714,0.919,0.756,1.506c0.058,0.835-0.656,4.4-1.597,8.46c-1.515-3.881-2.734-7.309-2.799-8.141l0.001-0.001
			c-0.042-0.587,0.146-1.155,0.531-1.6s0.92-0.714,1.507-0.757C90.712,31.032,91.279,31.221,91.725,31.606z"/>
	</g>
	<path d="M105.49,108.511h8.688c0.568,0,1.029-0.856,1.029-1.915c0-1.058-0.461-1.914-1.029-1.914h-8.688
		c-0.568,0-1.029,0.856-1.029,1.914C104.461,107.654,104.922,108.511,105.49,108.511z"/>
	<path d="M66.157,108.511h8.688c0.568,0,1.029-0.856,1.029-1.915c0-1.058-0.461-1.914-1.029-1.914h-8.688
		c-0.568,0-1.029,0.856-1.029,1.914C65.127,107.654,65.588,108.511,66.157,108.511z"/>
</g>
</svg>
