<?xml version="1.0" encoding="utf-8"?>
<!-- Generator: Adobe Illustrator 16.0.0, SVG Export Plug-In . SVG Version: 6.00 Build 0)  -->
<!DOCTYPE svg PUBLIC "-//W3C//DTD SVG 1.1//EN" "http://www.w3.org/Graphics/SVG/1.1/DTD/svg11.dtd">
<svg version="1.1" id="Capa_1" xmlns="http://www.w3.org/2000/svg" xmlns:xlink="http://www.w3.org/1999/xlink" x="0px" y="0px"
	 width="180px" height="120px" viewBox="0 0 180 120" enable-background="new 0 0 180 120" xml:space="preserve">
<path d="M-63.568,51.314h-0.064V40.933c0-1.143-0.926-2.068-2.067-2.068c-0.005,0-0.011,0-0.017,0v-4.136h0.017
	c1.142,0,2.067-0.926,2.067-2.067c0-1.143-0.926-2.068-2.067-2.068h-5.313c0.707-1.218,1.113-2.629,1.113-4.136v-4.179
	c0-4.561-3.711-8.271-8.271-8.271h-11.303l-2.433-35.311c-0.296-4.302-3.796-8.526-7.968-9.617l-11.193-2.927
	c2.503-2.602,4.047-6.133,4.047-10.02c0-4.978-2.527-9.375-6.365-11.979c-0.76-3.839-4.168-6.676-8.131-6.676
	c-3.997,0-7.4,2.854-8.139,6.725c-2.746,1.886-4.808,4.693-5.742,7.973c-0.018,0.054-0.033,0.107-0.046,0.163
	c-0.33,1.21-0.509,2.481-0.509,3.795c0,3.901,1.555,7.444,4.075,10.048l-11.1,2.9c-4.172,1.09-7.672,5.313-7.968,9.615
	l-2.432,35.311h-11.395c-4.561,0-8.271,3.711-8.271,8.271v4.179c0,1.507,0.406,2.918,1.113,4.136h-5.367
	c-1.142,0-2.068,0.926-2.068,2.068c0,1.131,0.909,2.049,2.036,2.066v4.139c-1.127,0.018-2.036,0.935-2.036,2.066v10.382h-0.064
	c-1.142,0-2.068,0.927-2.068,2.067c0,1.143,0.926,2.068,2.068,2.068h115.864c1.143,0,2.068-0.926,2.068-2.068
	C-61.5,52.241-62.426,51.314-63.568,51.314z M-173.196,34.729h18.244c0.012,0.001,0.024,0.003,0.037,0.003
	c0.015,0,0.03-0.002,0.044-0.003h17.858c0.006,0,0.013,0.001,0.019,0.001s0.012-0.001,0.018-0.001h30.969
	c0.009,0,0.017,0.001,0.025,0.001s0.019,0,0.028-0.001h17.906c0.006,0,0.012,0.001,0.018,0.001c0.005,0,0.01-0.001,0.015-0.001
	h18.163v4.136h-103.345V34.729z M-127.462-30.698c1.822,0.83,3.844,1.297,5.974,1.297c2.15,0,4.19-0.475,6.027-1.32l2.235,0.584
	v19.391c0,4.556-3.706,8.263-8.262,8.263c-4.556,0-8.262-3.707-8.262-8.263V-30.1L-127.462-30.698z M-131.633-45.8
	c2.742-1.367,6.381-2.143,10.146-2.143c3.812,0,7.382,0.757,10.146,2.139c0.119,0.627,0.185,1.274,0.185,1.936
	c0,5.696-4.634,10.331-10.33,10.331c-5.696,0-10.33-4.634-10.33-10.331C-131.817-44.528-131.752-45.173-131.633-45.8z
	 M-121.488-54.197c2.822,0,5.382,1.139,7.25,2.979c-2.264-0.562-4.721-0.86-7.25-0.86c-2.533,0-4.986,0.296-7.246,0.857
	C-126.867-53.06-124.308-54.197-121.488-54.197z M-121.488,1.651c6.836,0,12.398-5.562,12.398-12.397v-18.309l4.133,1.081V3.668
	c0,1.14-0.928,2.067-2.068,2.067h-28.896c-1.14,0-2.068-0.928-2.068-2.067v-31.616l4.104-1.072v18.274
	C-133.885-3.91-128.324,1.651-121.488,1.651z M-101.398,30.593c2.647-3.635,4.246-7.908,4.627-12.45h5.361c0.001,0,0.002,0,0.003,0
	s0.003,0,0.003,0h5.129c-0.247,4.335-1.275,8.509-3.062,12.45H-101.398z M-136.152,30.593c-3.355-3.374-5.421-7.736-5.897-12.45
	h41.12c-0.476,4.716-2.531,9.069-5.895,12.45H-136.152z M-117.548,14.007c2.801-0.757,5.296-1.925,6.241-4.136h4.281
	c1.818,0,3.455-0.786,4.592-2.035h1.645c3.402,0,6.171,2.769,6.171,6.171H-117.548z M-135.921,9.871h17.812
	c-1.518,0.446-3.333,0.773-4.798,1.038c-1.946,0.35-3.784,0.682-5.248,1.207c-1.439,0.516-2.314,1.191-2.831,1.891h-17.461
	c0-3.402,2.769-6.171,6.171-6.171h1.763C-139.376,9.085-137.739,9.871-135.921,9.871z M-151.451,18.143c0.001,0,0.002,0,0.004,0
	c0,0,0.001,0,0.002,0h5.247c0.382,4.537,1.979,8.818,4.622,12.45h-12.033c-1.787-3.941-2.814-8.115-3.062-12.45H-151.451z
	 M-74.036,22.278v4.179c0,2.28-1.855,4.136-4.136,4.136h-6.672c1.582-3.973,2.488-8.143,2.707-12.45h3.965
	C-75.892,18.143-74.036,19.998-74.036,22.278z M-96.033-21.019l1.869,27.139c-1.793-1.509-4.104-2.42-6.625-2.42h-0.033
	c0-0.011,0.001-0.021,0.001-0.032v-30.555C-98.428-26.203-96.203-23.492-96.033-21.019z M-121.517-58.387
	c0.262,0,0.519,0.025,0.77,0.073c-0.245-0.013-0.492-0.019-0.74-0.019c-0.28,0-0.558,0.01-0.834,0.026
	C-122.061-58.358-121.792-58.387-121.517-58.387z M-146.821-21.019c0.168-2.441,2.338-5.112,4.697-5.838V3.668
	c0,0.011,0.001,0.021,0.001,0.032h-0.152c-2.418,0-4.643,0.84-6.403,2.238L-146.821-21.019z M-168.91,26.457v-4.179
	c0-2.28,1.855-4.136,4.135-4.136h3.965c0.219,4.308,1.125,8.478,2.707,12.45h-6.671C-167.055,30.593-168.91,28.737-168.91,26.457z
	 M-175.232,43h107.448c0.005,0,0.011-0.001,0.017-0.001v8.315h-107.464V43z"/>
<g>
	<path d="M69.088,119.984c-3.094,0-6.872-3.351-8.184-6.348c-0.586-1.339-0.59-2.518-0.01-3.504
		c0.749-1.275,2.069-1.598,3.202-1.743c-0.893-0.58-1.876-1.143-2.798-1.378c-0.648-0.168-1.333-0.306-2.042-0.451
		c-4.397-0.893-10.417-2.115-14.734-10.479c-1.29-2.5-1.474-4.742-0.545-6.663c0.155-0.321,0.333-0.619,0.532-0.892
		c-1.328-0.322-2.556-0.697-3.636-1.115c-1.281-0.498-5.18-2.006-4.997-5.107c0.015-0.247-0.089-0.974-0.158-1.459
		c-0.263-1.846-0.512-3.59,0.597-4.856c0.557-0.638,1.336-0.987,2.195-0.987c1.102,0,2.017,0.59,2.61,1.032
		c0.253,0.189,0.477,0.378,0.675,0.562c0.359-0.057,0.73-0.085,1.11-0.085c3.038,0,6.062,1.853,7.347,2.748
		c0.492,0.029,1.291,0.016,2.006-0.062c1.549-0.169,2.253-0.245,4.064-2.043c1.81-1.797,4.259-3.549,5.522-4.407
		c0.888-3.664,2.133-9.102,2.264-10.533c0.084-0.932,0.046-2.992,0.002-5.378c-0.057-3.097-0.128-6.954-0.012-11.112
		c0.214-7.696,6.908-8.36,10.504-8.716c0.848-0.084,2.01-0.199,2.371-0.365c1.954-0.896,4.774-1.669,6.534-2.107l0.05-0.294
		c-0.802-0.699-1.534-1.541-2.187-2.516c-1.227-1.84-2.12-4.083-2.612-6.546c-3.317-2.138-3.29-5.289-3.27-7.652l0.003-0.599
		c0-3.36,0.63-6.998,4.964-9.097c0.635-4.79,4.587-8.491,9.352-8.491c4.764,0,8.718,3.701,9.351,8.491
		c4.333,2.099,4.965,5.736,4.965,9.096c0,2.612,0,6.446-4.174,8.741c-0.472,2.105-1.24,4.043-2.252,5.664
		c-0.597,0.959-1.275,1.804-2.024,2.523l0.117,0.678c1.758,0.438,4.579,1.212,6.533,2.107c0.362,0.166,1.524,0.28,2.373,0.365
		c3.595,0.356,10.286,1.02,10.503,8.716c0.116,4.146,0.045,7.992-0.013,11.082c-0.044,2.399-0.083,4.47,0.004,5.407
		c0.13,1.434,1.376,6.873,2.265,10.535c1.262,0.858,3.71,2.61,5.521,4.407c1.812,1.798,2.517,1.874,4.058,2.041
		c0.744,0.084,1.564,0.093,2.054,0.062c1.145-0.735,3.78-2.187,7.599-2.855c1.119-0.938,3.312-2.425,5.343-2.269
		c2.004,0.16,2.898,1.131,3.295,1.915c0.945,1.867-0.217,3.712-1.151,5.194c-0.238,0.378-0.622,0.99-0.745,1.288
		c-0.013,2.948-3.752,4.397-5.001,4.882c-1.081,0.418-2.311,0.793-3.639,1.117c0.198,0.271,0.376,0.568,0.532,0.89
		c0.929,1.919,0.745,4.163-0.545,6.663c-4.387,8.499-11.028,10.244-14.998,11.285c-0.53,0.139-1.027,0.268-1.476,0.404
		c-0.75,0.228-1.549,0.549-2.327,0.89c0.713,0.238,1.405,0.662,1.868,1.485c0.836,1.481,0.135,3.074-0.094,3.598
		c-1.465,3.357-4.603,6.257-7.667,6.257l-3.056-0.632c-1.332,0-2.938-0.454-3.671-1.128c-0.239-0.22-1.022-0.482-3.384-0.482
		c-0.469,0-0.948,0.007-1.437,0.016c-2.944,0.048-6.096,0.075-8.685-1.24c-3.404,2.039-7.788,2.304-10.966,2.304
		c-0.821,0-1.582-0.02-2.245-0.036c-0.478-0.011-0.898-0.022-1.252-0.022c-1.95,0-2.673,0.253-3.587,0.572
		c-0.482,0.169-1.03,0.359-1.737,0.524C69.75,119.947,69.423,119.984,69.088,119.984z M47.503,80.521
		c-3.497-2.104-6.628-0.896-6.628-0.896l0.124,2.505c1.25,0.767,4.621,1.997,9.572,2.543c0.881,0.098,1.741,0.191,2.431,0.459
		l2.655-1.042c2.842-1.113,4.838-1.786,5.953-2.005c5.386-2.252,8.258-3.987,9.001-4.687c0.151-0.709,0.38-1.521,0.658-2.505
		c1.001-3.552,2.677-9.495,2.834-18.727l4.859-0.227c0.386,3.444,0.941,7.619,1.167,8.36c0.061,0.182,0.163,0.447,0.288,0.777
		c0.76,2.008,2.174,5.742,2.272,9.393c0.059,2.138-0.987,5.667-2.096,9.403c-0.742,2.496-1.84,6.201-1.851,7.473
		c0.546,0.917,0.391,1.725,0.134,2.271l-0.656,1.396h-1.552c-0.853,0-1.415-0.408-1.746-0.74c-1.834-0.843-10.91-3.457-18.996-5.595
		l-1.58-0.42c-0.272,0.683-0.937,1.327-2.383,1.621c-2.06,0.419-3.269,0.967-3.589,1.633c-0.225,0.464-0.046,1.324,0.489,2.363
		c3.249,6.296,7.378,7.133,11.373,7.944c0.794,0.162,1.562,0.319,2.288,0.506c2.085,0.537,3.922,1.783,5.263,2.695
		c0.391,0.266,0.911,0.619,1.165,0.754c0.381,0.068,1.165,0.281,2.891,1.012l5.634,2.381l-5.741,2.114
		c-0.108,0.04-2.659,0.979-3.926,1.38c-0.55,0.174-1.086,0.277-1.583,0.353c0.927,1.1,2.219,2.036,2.825,2.126
		c0.404-0.099,0.743-0.219,1.131-0.353c1.136-0.398,2.422-0.849,5.207-0.849c0.388,0,0.853,0.012,1.376,0.025
		c0.626,0.015,1.345,0.034,2.121,0.034c1.669,0,6.751,0,9.297-2.223l1.61-1.403l1.609,1.403c1.461,1.275,4.411,1.198,7.056,1.157
		c0.515-0.007,1.022-0.015,1.516-0.015c2.162,0,4.594,0.119,6.354,1.483c0.029,0,0.062,0.002,0.1,0.002c0,0,0,0,0.001,0
		c1.566,0,5.463,1.149,6.989,0.347c-0.125-0.034-1.792-2.047-1.922-2.087c-1.557-0.489-3.941-1.78-4.207-1.924l-5.674-3.094
		l6.319-1.391c0.909-0.201,2.074-0.445,2.606-0.511c0.332-0.086,1.272-0.519,1.964-0.834c1.263-0.58,2.835-1.3,4.37-1.766
		c0.505-0.154,1.061-0.301,1.658-0.458c3.793-0.996,8.51-2.234,11.905-8.812c0.534-1.039,0.714-1.901,0.488-2.363
		c-0.321-0.666-1.528-1.214-3.587-1.633c-1.44-0.294-2.105-0.935-2.38-1.614l-1.445,0.163c-0.061,0.008-6.898,0.854-18.068,6.177
		l-0.705-1.455l-0.966-0.904l-1.709-0.549l0.114-0.358c-0.016-1.282-1.112-4.978-1.852-7.473c-1.107-3.733-2.155-7.259-2.097-9.395
		c0.1-3.661,1.518-7.399,2.278-9.406c0.123-0.326,0.223-0.589,0.287-0.777c0.222-0.727,0.776-4.904,1.162-8.349l4.86,0.227
		c0.156,9.238,1.833,15.181,2.836,18.733c0.276,0.982,0.504,1.792,0.656,2.499c0.742,0.699,3.611,2.433,8.988,4.684
		c1.287,0.244,3.322,1.043,4.905,1.721l2.688,1.146c0.563-0.136,1.193-0.206,1.838-0.276c5.377-0.593,8.89-1.993,9.847-2.73
		c0.039-0.33,1.561-2.626,1.673-2.942l-3.125,1.062c-5.804,1.138-8.375,4.188-13.999,0.365c-4.854-3.299-9.117-4.153-9.138-4.166
		l-0.813-0.522l-0.23-0.935c-0.243-0.988-2.386-9.728-2.606-12.156c-0.111-1.197-0.074-3.184-0.022-5.935
		c0.056-3.041,0.125-6.825,0.014-10.857c-0.084-2.943-1.6-3.588-6.115-4.036c-1.453-0.145-2.824-0.28-3.93-0.787
		c-2.48-1.135-6.091-2.14-6.138-2.15l-0.554-0.347l-2.195-6.71l0.209-0.884c0.725-0.519,1.38-1.246,1.949-2.16
		c0.877-1.403,1.508-3.185,1.827-5.155l0.218-1.348l1.276-0.511c2.257-0.905,2.372-1.951,2.372-4.842
		c0-3.004-0.487-4.235-3.228-5.149L94.295,11.2l0.077-1.987c0.003-2.789-2.045-5.035-4.563-5.035c-2.519,0-4.566,2.246-4.566,5.006
		l0.064,2.021l-1.71,0.572c-2.741,0.915-3.229,2.145-3.229,5.149l-0.004,0.639c-0.02,2.453,0.04,3.125,1.643,3.877L83.196,22
		l0.185,1.292c0.318,2.229,1.028,4.22,2.055,5.758c0.606,0.908,1.322,1.632,2.067,2.093l0.368,0.86l-2.159,6.534l-1.605,0.347
		c-0.046,0.01-2.608,1.015-5.088,2.15c-1.105,0.507-2.477,0.643-3.93,0.787c-4.516,0.447-6.033,1.093-6.115,4.035
		c-0.113,4.047-0.043,7.841,0.013,10.889c0.051,2.734,0.087,4.709-0.022,5.903c-0.222,2.429-2.363,11.168-2.605,12.156l-0.23,0.935
		l-0.814,0.522c-0.034,0.021-3.008-0.053-5.125,2.051c-2.806,2.789-4.06,3.562-6.375,3.812c-0.648,0.072-2.988,0.25-3.625,0.25
		c-1.091,0-2.685-1.854-2.812-1.875 M64.702,86.036c4.519,1.258,7.5,2.165,9.485,2.836c0.341-1.645,0.941-3.712,1.729-6.368
		c0.863-2.909,1.937-6.528,1.9-7.901c-0.031-1.142-0.248-2.347-0.538-3.496c-0.459,2.055-0.933,3.737-1.316,5.092
		c-0.296,1.05-0.53,1.881-0.633,2.451C75.136,79.725,74.783,81.688,64.702,86.036z M103.643,71.104
		c-0.289,1.149-0.506,2.354-0.539,3.498c-0.036,1.37,1.038,4.989,1.901,7.899c0.763,2.568,1.349,4.589,1.694,6.207
		c3.229-1.404,6.04-2.43,8.377-3.174c-8.967-4-9.3-5.852-9.484-6.888c-0.103-0.566-0.337-1.395-0.633-2.443
		C104.578,74.848,104.103,73.164,103.643,71.104z"/>
</g>
</svg>
